<?xml version="1.0" encoding="UTF-8" standalone="no"?>
<svg style="-webkit-filter: invert(1);" viewBox="0 0 512 512">
  <g id="g3088" transform="translate(-1,-0.75)">
    <path style="fill:#010101" d="M 375,511.47597 C 353.27499,507.0103 330.94414,494.61516 315.7338,478.57919 285.02947,446.2082 276.60595,397.56199 294.61311,356.60632 314.40506,311.59129 362.51161,284.31829 411,290.62321 c 45.57935,5.92666 81.86463,37.72096 94.64042,82.9269 3.56436,12.61216 4.11826,39.55624 1.07355,52.22251 -10.62419,44.19767 -45.67165,78.09924 -88.71397,85.81343 -9.51839,1.70592 -34.47618,1.64202 -43,-0.11008 z M 428.07747,423.11121 473.5,378.22242 458.26623,362.86121 443.03246,347.5 l -30.51305,30.49067 -30.51305,30.49067 -14.86205,-14.83728 c -17.50895,-17.47975 -13.65058,-17.60744 -32.28229,1.06841 l -13.30278,13.33429 29.96413,29.97662 C 368.00364,454.51052 381.75017,468 382.07122,468 c 0.32105,0 21.02386,-20.19996 46.00625,-44.88879 z M 207,478.09093 C 145.38787,455.74644 88.135607,402.37028 54.503824,335.91908 23.641683,274.94026 8.9724108,209.96456 7.3089154,126.87515 L 6.7358302,98.250291 28.117915,97.724051 C 73.325459,96.611437 87.90313,89.535942 121.2932,52.5 144.99375,26.21159 153.62471,18.821848 168.86948,11.765665 198.40637,-1.905755 241.7974,-1.718655 269.40192,12.199156 284.0483,19.583652 292.73628,27.079894 314.37127,51 349.49909,89.838081 363.11553,96.478424 410.5,97.8792 l 21,0.6208 -0.30484,21.5 c -0.69006,48.66812 -6.32069,96.40241 -15.51145,131.5 l -1.30932,5 -15.93719,0.61531 c -55.44212,2.14055 -100.28535,29.37981 -126.05982,76.57291 -18.51821,33.90686 -21.75219,78.58886 -8.42627,116.42065 l 3.86419,10.9703 -14.03438,7.03058 c -11.91994,5.97134 -32.48343,14.00896 -35.40757,13.8397 -0.48034,-0.0278 -5.59835,-1.76414 -11.37335,-3.85852 z m 13,-237.24067 0,-202.149745 -9.08756,0.645053 c -24.8108,1.76112 -35.45317,8.136768 -60.71839,36.37526 C 115.37193,114.64089 95.170524,127.22884 59,132.54587 c -6.325,0.92977 -12.132011,1.87486 -12.904468,2.1002 -2.78986,0.81386 0.314698,41.78065 5.558929,73.35393 16.877122,101.60995 67.551589,181.54881 141.192779,222.73131 6.52547,3.64925 25.05302,12.25514 26.40276,12.26385 0.4125,0.003 0.75,-90.96254 0.75,-202.1449 z" />
  </g>
</svg>