                <svg style="-webkit-filter: invert(1);" viewBox="0 0 508 512">
                    <g id="g3136"
                       transform="translate(1.3329046,-1.3322606)">
                        <path style="fill:#e7e7e7"
                              d="m 395.66405,513.57126 -16,0.41147 -9.30375,-2.01619 c -5.11706,-1.1089 -11.64206,-2.90494 -14.5,-3.99118 -2.85794,-1.08625 -5.98375,-1.97523 -6.94625,-1.97551 l -1.75,-5e-4 0,-0.80073 c 0,-0.44041 -2.03704,-1.79041 -4.52675,-3 -2.48971,-1.2096 -5.16735,-2.19927 -5.95031,-2.19927 l -1.42356,0 -0.79969,-1.2529 c -0.43983,-0.6891 -2.62388,-2.4891 -4.85344,-4 -2.22956,-1.51091 -4.37463,-2.7471 -4.76683,-2.7471 -0.39219,0 -2.70341,-1.9125 -5.13605,-4.25 -2.43264,-2.3375 -5.39934,-5.21324 -6.59266,-6.39052 -1.19331,-1.17729 -3.89205,-4.01439 -5.9972,-6.30466 -2.10514,-2.29027 -4.98119,-6.13271 -6.39123,-8.53876 -1.41003,-2.40604 -3.1311,-4.96895 -3.82458,-5.69534 -0.69349,-0.7264 -2.8606,-4.69572 -4.81581,-8.82072 -1.95522,-4.125 -4.35071,-9.975 -5.32332,-13 -0.97261,-3.025 -2.13986,-6.4 -2.59388,-7.5 -0.45403,-1.1 -1.3606,-5.15 -2.01462,-9 l -1.18911,-7 -0.31811,-11.5 -0.31811,-11.5 1.90822,-9.5 c 1.04952,-5.225 1.91245,-10.35071 1.91763,-11.39047 0.005,-1.03976 0.87294,-3.73976 1.92836,-6 1.05542,-2.26024 3.27697,-7.13674 4.93676,-10.83667 1.6598,-3.69993 5.16234,-9.99993 7.78342,-14 2.62108,-4.00007 4.66905,-7.62682 4.55104,-8.05945 -0.11801,-0.43262 4.31745,-5.31859 9.85658,-10.85772 l 10.07114,-10.07114 0.54469,0.5447 0.5447,0.5447 5.65108,-3.85739 c 3.10809,-2.12156 10.91115,-6.38638 17.34013,-9.47737 l 11.68905,-5.61997 2.80623,-0.36772 c 1.54343,-0.20224 6.85623,-1.15629 11.80623,-2.1201 l 9,-1.75239 10,0.17963 10,0.17964 7.5,1.0918 c 4.125,0.60049 8.4,1.24064 9.5,1.42256 1.1,0.18192 4.925,1.33446 8.5,2.56119 3.575,1.22674 9.875,3.87991 14,5.89594 4.125,2.01603 9.67421,5.20107 12.33158,7.07787 2.65736,1.8768 5.18423,3.41236 5.61525,3.41236 0.43102,0 2.09713,1.35 3.70246,3 1.60533,1.65 4.47847,4.382 6.38475,6.0711 1.90628,1.68911 5.49014,5.28911 7.96414,8 2.474,2.7109 4.499,5.16856 4.5,5.46149 10e-4,0.29292 1.76939,2.99292 3.92976,6 2.16037,3.00707 3.89405,5.69241 3.85262,5.96741 -0.0414,0.275 1.40713,3.425 3.21902,7 1.8119,3.575 4.20019,9.2 5.30732,12.5 1.10713,3.3 2.72849,9.46853 3.60303,13.70784 l 1.59007,7.70784 0,15.08432 0,15.08432 -1.59007,7.70784 c -0.87454,4.23931 -2.51266,10.40784 -3.64026,13.70784 -1.12761,3.3 -3.61231,9.12602 -5.52157,12.94671 -1.90925,3.82069 -4.55178,8.65819 -5.87228,10.75 -1.3205,2.09181 -2.14396,3.80329 -1.82992,3.80329 0.31405,0 -1.44083,2.5875 -3.89974,5.75 -2.4589,3.1625 -7.3227,8.48739 -10.80844,11.83309 -3.48575,3.3457 -8.34569,7.6207 -10.79987,9.5 -2.45418,1.8793 -4.12502,2.87043 -3.71299,2.20252 l 0.74916,-1.21439 -7.24723,4.46822 -7.24724,4.46821 -9.03977,3.47489 c -4.97188,1.91119 -11.96478,4.19557 -15.53978,5.0764 l -6.5,1.6015 -16,0.41147 z m 27.42063,-89.99527 45.5,-45.5 -2.35568,-2.5075 -2.35567,-2.5075 -0.74133,0.45817 -0.74134,0.45817 -1.23575,-1.48899 -1.23575,-1.48899 0.82539,0 c 0.45397,0 -0.91406,-1.78136 -3.04006,-3.95858 l -3.86545,-3.95859 -0.72419,0.44758 -0.72419,0.44757 -1.23575,-1.48899 -1.23575,-1.48899 0.82539,0 c 0.45397,0 -0.91406,-1.78136 -3.04006,-3.95858 l -3.86545,-3.95859 -0.72419,0.44758 -0.72419,0.44757 -1.23575,-1.48899 -1.23575,-1.48899 0.74489,0 0.74489,0 -1.30003,-1.56644 -1.30003,-1.56644 -30.61694,30.605 -30.61695,30.605 -15.26017,-15.22144 -15.26018,-15.22144 -14.90447,14.87961 -14.90446,14.87962 1.08161,1.30326 c 0.59489,0.7168 1.71564,1.30327 2.49056,1.30327 l 1.40894,0 0.61327,1.75 c 0.33729,0.9625 1.98644,3.2125 3.66478,5 l 3.05151,3.25 1.33522,0 1.33522,0 0.61327,1.75 c 0.33729,0.9625 1.98644,3.2125 3.66478,5 l 3.05151,3.25 1.33522,0 1.33522,0 0.61327,1.75 c 0.33729,0.9625 1.98644,3.2125 3.66478,5 l 3.05151,3.25 1.33522,0 1.33522,0 0.61327,1.75 c 0.33729,0.9625 1.98644,3.2125 3.66478,5 l 3.05151,3.25 1.33522,0 1.33522,0 0.61327,1.75 c 0.33729,0.9625 1.98644,3.2125 3.66478,5 l 3.05151,3.25 1.33522,0 1.33522,0 0.61763,1.75 c 0.33969,0.9625 1.54521,2.77974 2.67893,4.03832 l 2.0613,2.28832 45.5,-45.5 z m -207.92063,58.67358 -2.5,0.47346 -5.5,-2.33112 c -3.025,-1.28211 -6.22409,-2.34494 -7.10908,-2.36184 -0.88499,-0.0169 -4.25999,-1.37502 -7.5,-3.01805 -3.24001,-1.64304 -6.64628,-2.99304 -7.56949,-3 l -1.67857,-0.0127 -1.38412,-1.38412 c -0.76126,-0.76126 -3.25048,-2.33626 -5.53159,-3.5 -2.28111,-1.16373 -4.81804,-2.11588 -5.63762,-2.11588 l -1.49015,0 -0.79969,-1.29636 c -0.43983,-0.71299 -2.51291,-2.28799 -4.60685,-3.5 -2.09394,-1.212 -4.34394,-2.21141 -5,-2.22092 -0.65606,-0.009 -2.22143,-1.10215 -3.47861,-2.4281 l -2.28576,-2.41084 -4.40033,-2.13016 c -2.42017,-1.17158 -4.54158,-2.44478 -4.71423,-2.82933 -0.17265,-0.38454 -2.22641,-2.19613 -4.56391,-4.02576 -2.3375,-1.82962 -4.25,-3.01929 -4.25,-2.64369 0,0.37559 -2.09914,-1.3866 -4.66476,-3.91597 -2.56562,-2.52938 -5.08864,-4.59887 -5.60671,-4.59887 -0.51808,0 -3.07366,-2.1375 -5.67907,-4.75 -2.60541,-2.6125 -7.84489,-7.85778 -11.64328,-11.65618 -3.7984,-3.79839 -9.043675,-9.03787 -11.656175,-11.64328 -2.6125,-2.60541 -4.75,-5.14554 -4.75,-5.64473 0,-0.49919 -2.015958,-2.90971 -4.479906,-5.35671 -2.463949,-2.44701 -4.488949,-4.92366 -4.5,-5.50368 -0.01105,-0.58002 -1.606978,-2.78706 -3.546504,-4.90453 -1.939525,-2.11747 -4.219372,-5.31025 -5.066327,-7.09508 -0.846955,-1.78482 -2.84757,-4.52778 -4.445813,-6.09547 l -2.905894,-2.85034 -0.02778,-1.34563 c -0.01528,-0.7401 -1.007701,-2.7651 -2.205385,-4.5 -1.197685,-1.7349 -2.997685,-3.9594 -4,-4.94333 l -1.822391,-1.78895 0,-1.59301 c 0,-0.87616 -0.988746,-3.22113 -2.197214,-5.21105 -1.208467,-1.98991 -2.445967,-3.84303 -2.75,-4.11803 -0.304032,-0.275 -2.517051,-4.55 -4.91782,-9.5 -2.400768,-4.95 -5.61581,-11.7 -7.144537,-15 -1.528727,-3.3 -3.346789,-7.575 -4.040137,-9.5 -0.693348,-1.925 -2.103665,-4.92392 -3.134038,-6.66427 -1.030374,-1.74035 -1.767538,-3.54035 -1.638144,-4 0.129394,-0.45965 -0.567153,-3.19294 -1.547884,-6.07397 -0.98073,-2.88103 -2.198739,-5.49509 -2.706686,-5.80901 l -0.92354,-0.57078 0,-2.52043 0,-2.52043 -2.401604,-6.17055 c -1.320882,-3.39381 -2.708154,-7.97056 -3.082826,-10.17056 -0.374672,-2.2 -1.276888,-5.35 -2.004926,-7 -0.728037,-1.65 -1.584932,-4.84276 -1.90421,-7.09502 -0.319278,-2.25227 -1.217021,-6.30227 -1.994984,-9 -0.777963,-2.69774 -1.950143,-7.60498 -2.604845,-10.90498 -0.654702,-3.3 -1.815366,-9.6 -2.579253,-14 -0.7638863,-4.4 -2.4829812,-17.225 -3.8202099,-28.5 l -2.4313249,-20.5 -1.0879087,-21.50196 C 2.6536136,135.17131 2.1640547,119.51969 2.1640547,112.216 l 0,-13.279416 1.25,-0.396134 c 0.6875,-0.217874 10.2500003,-0.624075 21.2500003,-0.902669 l 20,-0.506534 5.995103,-1.161938 c 3.297306,-0.639066 6.796498,-1.590831 7.775981,-2.115035 0.979483,-0.524203 3.376731,-1.157417 5.327216,-1.40714 l 3.546338,-0.454044 7.177681,-3.317462 c 3.947725,-1.824605 9.652681,-5.048111 12.677681,-7.163347 3.025,-2.115236 8.354024,-6.583469 11.842275,-9.929406 3.48825,-3.345936 10.42418,-10.808521 15.41318,-16.583521 4.989,-5.775 12.48497,-14.033798 16.65772,-18.352884 l 7.58682,-7.852884 9.7054,-7.338064 c 5.33797,-4.035935 10.52437,-7.776361 11.52533,-8.312058 1.00096,-0.535697 5.18353,-2.160383 9.2946,-3.6104132 4.11107,-1.4500304 11.07467,-3.5475943 15.47467,-4.661253 l 8,-2.0248341 17,-0.5225973 17,-0.5225974 9.50872,1.5617 9.50873,1.5617 7.72772,2.522582 7.72772,2.5225821 8.76355,4.5127249 c 4.81996,2.481999 8.3459,4.513529 7.83542,4.514511 -0.51048,9.82e-4 0.83952,1.339266 3,2.973965 2.16048,1.634699 4.26885,2.984699 4.68528,3 0.41642,0.0153 3.79142,3.114233 7.5,6.886515 3.70857,3.772283 8.99286,9.482673 11.74286,12.689756 2.75,3.207083 6.8,7.638425 9,9.847427 2.2,2.209002 3.9192,4.278504 3.82045,4.598893 -0.0987,0.32039 3.65266,4.390134 8.33648,9.043878 4.68381,4.653743 8.85929,8.461351 9.27885,8.461351 0.41955,0 1.92949,1.125 3.3554,2.5 1.42592,1.375 4.75623,3.738225 7.4007,5.251611 2.64446,1.513386 6.75793,3.650886 9.14103,4.75 2.38309,1.099114 4.90146,1.998389 5.59636,1.998389 0.6949,0 2.6089,0.671195 4.25332,1.491544 l 2.98988,1.491544 6.41376,1.043472 c 3.52757,0.573909 8.66377,1.41595 11.41377,1.871201 l 5,0.82773 17.97312,0.19371 c 9.88522,0.10654 18.17752,0.398106 18.42734,0.647923 0.24981,0.249817 0.35513,10.236912 0.23404,22.193542 -0.12109,11.95663 -0.42359,24.66433 -0.67221,28.23933 -0.24862,3.575 -0.66017,10.1 -0.91457,14.5 -0.25439,4.4 -0.9237,11.51151 -1.48734,15.80335 -0.56365,4.29184 -0.94461,8.11684 -0.84657,8.5 0.098,0.38316 -0.57186,5.87165 -1.48865,12.19665 -0.91678,6.325 -1.88198,12.85 -2.14488,14.5 -0.2629,1.65 -1.16546,6.15 -2.00568,10 -0.84022,3.85 -1.79219,9.025 -2.1155,11.5 -0.3233,2.475 -1.21705,6.525 -1.9861,9 -0.76905,2.475 -1.8768,6.39161 -2.46168,8.70359 l -1.06341,4.20358 -16.22396,0.42983 -16.22395,0.42982 -6.5,0.99943 c -3.575,0.54968 -8.75,1.56857 -11.5,2.26418 -2.75,0.69562 -6.6409,2.08371 -8.64644,3.08466 -2.00555,1.00094 -4.9644,2.05209 -6.57524,2.33588 -1.61084,0.28379 -5.9301,1.87683 -9.59836,3.5401 -3.66826,1.66327 -9.62736,4.8345 -13.24244,7.04717 l -6.57288,4.02305 -10.4698,9.07655 -10.46981,9.07656 -8.71251,9.97648 c -4.79189,5.48706 -10.20945,12.30132 -12.03903,15.1428 -1.82958,2.84148 -5.31708,9.18366 -7.75,14.09374 l -4.42349,8.92742 0,2.00686 c 0,1.10377 -0.8589,3.83643 -1.90866,6.07258 -1.04977,2.23614 -2.64002,6.66247 -3.53391,9.83628 -0.89389,3.1738 -1.83417,7.83519 -2.0895,10.35863 -0.25534,2.52344 -0.8949,7.35169 -1.42124,10.72944 l -0.95699,6.14137 0.33752,10.5 c 0.18563,5.775 0.88723,14.775 1.55911,20 l 1.22159,9.5 1.46978,2.84293 c 0.80837,1.56361 1.24747,3.06524 0.97576,3.33695 -0.27171,0.27171 0.19413,2.81739 1.0352,5.65707 l 1.52922,5.16305 1.01609,0.63629 c 0.55885,0.34996 1.17873,1.69996 1.37752,3 0.19878,1.30004 0.63902,3.57006 0.97831,5.04449 l 0.61689,2.68079 -5.35334,2.69364 c -2.94434,1.48151 -8.27835,4.41436 -11.85335,6.51746 -3.575,2.1031 -7.625,4.04313 -9,4.31118 -1.375,0.26805 -6.325,1.81611 -11,3.44014 -4.675,1.62402 -9.625,3.16583 -11,3.42623 z m -0.0883,-39.25022 0.79367,0 0.0238,-201.01731 0.0238,-201.017299 -1.00975,-0.624061 -1.00975,-0.624061 -6.61676,0.163342 -6.61671,0.163343 -5.5,1.584241 c -3.025,0.871333 -6.625,1.790416 -8,2.042407 -1.375,0.251991 -4.46484,1.327042 -6.86631,2.389002 -2.40147,1.06196 -7.2187,3.966261 -10.70495,6.454001 l -6.33865,4.523164 -11.75339,13.231618 c -6.46436,7.277389 -14.24175,15.931617 -17.28307,19.231617 -3.04133,3.3 -8.68507,8.865201 -12.54166,12.367116 l -7.01197,6.36711 -11.88907,7.89874 -11.889074,7.89874 -2.610925,0.5535 c -1.436009,0.30442 -4.410926,1.1558 -6.610926,1.89194 -2.2,0.73614 -7.825,2.46842 -12.5,3.84951 l -8.5,2.51107 -10,1.33113 -10,1.33114 0.09871,4 c 0.05429,2.2 0.399161,8.95 0.766374,15 0.367213,6.05 1.078951,15.05 1.581641,20 0.50269,4.95 1.395895,13.275 1.984901,18.5 l 1.070919,9.5 1.052822,2.58771 c 0.579052,1.42324 0.940321,2.99824 0.80282,3.5 -0.1375,0.50176 0.09465,3.4927 0.51589,6.64653 l 0.765892,5.73423 0.930013,0.57478 0.930013,0.57478 0,3.78206 0,3.78205 1.574666,4.90893 c 0.866067,2.69991 1.730877,5.96184 1.921801,7.24873 0.190924,1.28688 0.877541,4.55077 1.525814,7.25308 0.648274,2.70231 1.583464,5.16346 2.078199,5.46922 l 0.899525,0.55593 0,2.52043 0,2.52043 2.395677,6.17055 c 1.317623,3.39381 2.694025,7.52056 3.058672,9.17056 0.364646,1.65 1.472317,4.8 2.46149,7 0.989173,2.2 2.402357,5.9657 3.140407,8.36823 0.738051,2.40252 2.152326,5.3985 3.142832,6.65773 l 1.800922,2.2895 0,1.63211 c 0,0.89766 0.96045,3.52668 2.134334,5.84227 1.173884,2.31559 2.534426,4.46823 3.023426,4.78365 0.489,0.31543 1.06759,1.50037 1.285754,2.6332 0.218165,1.13284 1.345723,3.79977 2.505684,5.92651 1.159962,2.12674 3.649038,6.76166 5.531279,10.29983 l 3.422258,6.43303 1.548632,0.86666 1.548633,0.86666 0,1.47175 c 0,0.80946 1.184799,3.2621 2.632886,5.45031 1.448079,2.18821 2.979059,3.97856 3.402169,3.97856 0.42311,0 1.20143,1.2375 1.7296,2.75 l 0.96032,2.75 3.20249,3.42532 c 1.76137,1.88392 3.81296,4.58392 4.5591,6 0.74613,1.41607 3.22419,4.55955 5.5068,6.98551 2.2826,2.42595 5.2963,5.91345 6.6971,7.75 l 2.54691,3.33917 1.38131,0 1.38131,0 0,1.1009 0,1.10091 7.25,7.26546 c 3.9875,3.99601 9.0003,8.4506 11.13955,9.8991 2.13925,1.4485 3.53842,2.63363 3.10927,2.63363 -0.42916,0 1.19555,1.57063 3.61045,3.49029 2.4149,1.91967 4.76285,3.49467 5.21765,3.5 0.45481,0.005 2.24121,1.424 3.96978,3.15257 l 3.14286,3.14285 3.1886,1.33228 c 1.75373,0.73276 3.34233,1.72622 3.53022,2.20769 0.18789,0.48147 2.24518,2.06766 4.57175,3.52486 2.32657,1.4572 4.92819,2.64946 5.78138,2.64946 l 1.55126,0 0.51908,1.3527 0.51908,1.3527 5.19953,2.26052 c 2.85975,1.24328 5.87454,2.66524 6.69954,3.15991 0.825,0.49466 3.44981,1.79372 5.83291,2.88678 2.38309,1.09306 5.16904,1.98739 6.19098,1.98739 l 1.85808,0 0.61803,1 c 0.33992,0.55 0.97518,1 1.4117,1 z" />
                        <path style="fill:#d0d0d0"
                              d="m 395.66405,513.57633 -15,0.37145 -7.85994,-1.48385 c -4.32297,-0.81612 -11.29797,-2.66368 -15.5,-4.1057 -4.20203,-1.44202 -11.01506,-4.32438 -15.14006,-6.40523 -4.125,-2.08086 -10.37627,-5.80072 -13.89171,-8.26636 -3.51543,-2.46563 -9.5477,-7.56644 -13.40503,-11.33513 -3.85733,-3.76869 -9.15926,-9.68647 -11.78208,-13.15062 l -4.76876,-6.29846 -4.65988,-9.02239 c -2.56293,-4.96231 -5.74781,-12.22102 -7.0775,-16.13047 -1.32968,-3.90945 -3.1365,-10.94457 -4.01515,-15.63361 l -1.59754,-8.52551 0.0239,-12.04555 0.0239,-12.04555 2.04687,-10 2.04687,-10 2.47469,-6.30346 c 1.36108,-3.4669 4.49507,-10.10136 6.96441,-14.74325 l 4.48971,-8.43978 4.80474,-6.24412 c 2.64261,-3.43427 7.73375,-9.09979 11.31365,-12.59005 l 6.5089,-6.34592 8,-5.30703 c 4.4,-2.91887 10.7,-6.64779 14,-8.2865 3.3,-1.63871 9.41388,-4.15039 13.58639,-5.58152 l 7.5864,-2.60206 9.4136,-1.63661 9.41361,-1.63661 13.5,0.4959 13.5,0.49589 9.77735,2.5619 9.77735,2.56189 9.47269,4.48726 9.4727,4.48726 7.10314,4.76569 7.10315,4.7657 8.39153,8.33505 8.39154,8.33506 5.08977,7.54271 c 2.79938,4.1485 6.83646,11.21919 8.9713,15.71266 l 3.88152,8.16994 2.73579,9 2.7358,9 0,21.5 0,21.5 -2.74102,8.90039 c -1.50756,4.89521 -4.29684,12.26777 -6.19841,16.38347 l -3.4574,7.48308 -5.70484,8.61653 -5.70484,8.61653 -8.0791,8 -8.0791,8 -7.21941,4.8134 -7.21942,4.81341 -9.4727,4.48726 -9.47269,4.48726 -9.77735,2.5521 -9.77735,2.55211 -15,0.37144 z m 27.4893,-90.06902 45.49682,-45.49681 -14.98383,-15.00885 -14.98383,-15.00885 -30.51425,30.50235 -30.51426,30.50235 -15.24077,-15.24077 -15.24077,-15.24077 -15.00743,14.98241 -15.00744,14.98242 30.24947,30.26167 30.24947,30.26167 45.49682,-45.49682 z M 214.16158,481.9204 c -1.37364,-0.0434 -3.84753,-0.54512 -5.49753,-1.11489 -1.65,-0.56977 -7.40661,-2.78821 -12.79247,-4.92987 -5.38587,-2.14166 -13.03587,-5.51458 -17,-7.49537 -3.96414,-1.9808 -9.90753,-5.19945 -13.20753,-7.15256 -3.3,-1.9531 -9.375,-5.77572 -13.5,-8.49469 -4.125,-2.71897 -9.75,-6.5688 -12.5,-8.55518 -2.75,-1.98637 -8.825,-6.77461 -13.5,-10.64053 -4.675,-3.86592 -13.50316,-12.05304 -19.61813,-18.1936 L 95.427789,404.17904 86.695954,393.3392 C 81.893445,387.37728 73.76343,376.18192 68.629255,368.46062 l -9.334864,-14.03873 -8.006515,-15.46127 c -4.403583,-8.5037 -10.240011,-20.68849 -12.969839,-27.07732 -2.729828,-6.38883 -6.985273,-17.42808 -9.456545,-24.53167 -2.471271,-7.10359 -6.095011,-18.75136 -8.052754,-25.88395 -1.957744,-7.13258 -4.730505,-18.36833 -6.161691,-24.96833 -1.431185,-6.6 -3.496245,-17.4 -4.589021,-24 -1.0927763,-6.6 -2.8588653,-19.65 -3.9246426,-29 l -1.9377769,-17 -1.1646626,-33.26778 C 2.3903795,114.93429 2.0726303,99.757445 2.3248346,99.505241 2.5770389,99.253036 10.631538,98.79876 20.223722,98.495738 l 17.440333,-0.55095 7.5,-1.027627 c 4.125,-0.565195 11.504205,-2.155112 16.398233,-3.53315 l 8.898232,-2.505522 6.101768,-3.076427 c 3.355972,-1.692035 8.576767,-4.767174 11.601767,-6.833642 l 5.5,-3.757215 6.862175,-6.797554 c 3.7742,-3.738654 12.14693,-12.898821 18.60607,-20.355925 6.45913,-7.457105 13.94615,-15.604216 16.63781,-18.104692 2.69167,-2.500476 8.29226,-7.100374 12.44575,-10.221995 l 7.55182,-5.675675 8.44818,-3.930636 8.44819,-3.9306347 10.5,-2.6773628 10.5,-2.6773628 15,-0.5512099 15,-0.5512099 8.78079,1.1725431 8.78079,1.1725432 8.71921,2.5227197 8.71921,2.5227198 7,3.5561943 c 3.85,1.955907 10.6,6.167613 15,9.359347 l 8,5.803152 6.07512,6.326593 c 3.34131,3.479627 11.21077,12.176594 17.48769,19.326594 6.27691,7.15 13.66811,15.167273 16.42488,17.816162 2.75677,2.648889 7.71231,6.750002 11.01231,9.113585 3.3,2.363583 8.25,5.421116 11,6.794518 2.75,1.373402 8.6,3.674726 13,5.114054 l 8,2.61696 9.5,1.481945 9.5,1.481945 15.5,0.477299 c 8.525,0.262513 16.7375,0.5057 18.25,0.540415 l 2.75,0.06312 -0.009,17.749993 c -0.005,9.7625 -0.44543,25.175 -0.97891,34.25 -0.53349,9.075 -1.44882,21.45 -2.03407,27.5 -0.58526,6.05 -1.74986,15.725 -2.58801,21.5 -0.83816,5.775 -2.41478,15.45 -3.50361,21.5 -1.08884,6.05 -3.3326,16.66719 -4.98614,23.59375 l -3.00645,12.59375 -14.19693,0.044 -14.19694,0.0439 -9.73684,1.61191 -9.73684,1.61191 -9.76316,3.10751 c -5.36974,1.70914 -13.04836,4.61552 -17.0636,6.45863 -4.01524,1.8431 -10.09024,5.03146 -13.5,7.08524 -3.40976,2.05378 -9.12456,5.91764 -12.69956,8.58637 -3.575,2.66872 -10.04967,8.31965 -14.38815,12.55762 l -7.88814,7.7054 -7.20499,9.61057 -7.20499,9.61057 -5.5486,10.88943 -5.5486,10.88943 -3.10161,9.74117 c -1.70588,5.35765 -3.82142,13.68265 -4.7012,18.5 l -1.5996,8.75883 -0.54361,12.29001 -0.54361,12.29001 1.21495,9.20999 c 0.66822,5.0655 2.09392,12.93044 3.16822,17.47766 1.0743,4.54722 3.28902,11.89042 4.9216,16.31822 1.63258,4.4278 2.96833,8.46311 2.96833,8.96736 l 0,0.91682 -14.04241,6.94663 -14.04241,6.94663 -9.21006,3.06833 -9.21007,3.06834 -2.49752,-0.079 z m 0.75247,-38.93326 1.25,0.0122 0,-202.08977 0,-202.089764 -8.75,0.712228 -8.75,0.712229 -7.14353,1.809398 -7.14352,1.809397 -5.90839,2.982543 c -3.24961,1.640398 -8.23894,4.824747 -11.08741,7.076332 l -5.17903,4.093789 -11.26906,12.733392 c -6.19798,7.003365 -15.54406,17.158977 -20.76906,22.568027 l -9.5,9.834629 -8.5,6.28227 c -4.675,3.45525 -11.425,7.89356 -14.999995,9.86292 -3.575,1.96936 -10.227829,4.95238 -14.784065,6.62892 -4.556235,1.67655 -11.756235,3.91651 -16,4.97768 -4.243764,1.06118 -11.917023,2.48602 -17.051687,3.16633 l -9.335751,1.23692 0.633368,10.59627 c 0.348352,5.82794 1.086636,15.77126 1.640631,22.09626 0.553995,6.325 1.663772,16.675 2.466172,23 0.8024,6.325 1.922872,14.2 2.489938,17.5 0.567065,3.3 1.91936,10.275 3.005098,15.5 1.085739,5.225 2.679892,12.425 3.542563,16 0.862671,3.575 2.832592,10.775 4.377602,16 1.545009,5.225 3.828672,12.65 5.074805,16.5 1.246133,3.85 4.478388,12.38906 7.182789,18.97569 2.704402,6.58664 6.742366,15.81164 8.973255,20.5 2.230889,4.68837 6.086117,12.12431 8.567174,16.52431 2.481057,4.4 7.004965,11.825 10.053128,16.5 3.048155,4.675 8.152185,11.95427 11.342275,16.17616 3.19009,4.22189 7.64629,9.84689 9.90266,12.5 2.25637,2.65311 8.44894,9.26046 13.76127,14.683 l 9.65877,9.85917 10,8.22589 c 5.5,4.52425 14.05,10.94835 19,14.2758 4.95,3.32744 12.99476,8.19846 17.87725,10.82447 4.88248,2.62602 12.30748,6.27229 16.5,8.10283 4.19251,1.83055 8.18525,3.33376 8.87275,3.34047 z" />
                        <path style="fill:#aeaeae"
                              d="m 391.66405,513.90559 -10,-0.0857 -7.57827,-1.37232 c -4.16805,-0.75478 -11.36805,-2.56053 -16,-4.01278 l -8.42173,-2.64045 -7.96351,-4.12001 -7.96351,-4.12 -7.53649,-5.63096 -7.53649,-5.63096 -6.55679,-6.89653 c -3.60624,-3.79308 -8.64588,-9.84664 -11.19921,-13.45233 l -4.64242,-6.55582 -4.55465,-9.44418 -4.55466,-9.44419 -2.69344,-10 -2.69344,-10 0,-18.5 0,-18.5 2.6285,-9.70581 2.62849,-9.70581 4.03243,-8.60499 c 2.21784,-4.73274 6.18033,-11.84013 8.80552,-15.79419 l 4.77309,-7.1892 7.40811,-7.7627 7.4081,-7.7627 6.60519,-4.86477 c 3.63285,-2.67562 9.08018,-6.24919 12.10518,-7.94127 3.025,-1.69208 8.875,-4.46974 13,-6.17257 l 7.5,-3.09607 9,-2.06177 9,-2.06176 12.07212,-0.51635 12.07212,-0.51635 9.57685,1.63243 9.57686,1.63244 7.85102,2.62436 c 4.31807,1.4434 11.22603,4.32502 15.35103,6.40359 4.125,2.07857 10.65,6.00397 14.5,8.7231 l 7,4.94388 7.20126,7.20297 7.20127,7.20297 4.56195,6.39299 c 2.50907,3.51615 6.31063,9.67903 8.44791,13.69529 l 3.88597,7.30229 2.53087,7.5 c 1.39197,4.125 3.28813,11.26202 4.21369,15.86005 l 1.68282,8.36006 -0.51202,16.63994 -0.51202,16.63995 -2.14852,7.84448 c -1.18169,4.31447 -3.85999,11.81426 -5.95178,16.66621 l -3.80325,8.82172 -5.89571,8.76983 -5.89572,8.76983 -7.74472,7.74472 -7.74473,7.74473 -8.25863,5.45956 c -4.54225,3.00276 -10.95864,6.80032 -14.25864,8.43903 -3.3,1.63871 -9.40767,4.14825 -13.57261,5.57676 l -7.57261,2.5973 -9.42739,1.52889 -9.42739,1.5289 -10,-0.0857 z m 31.4893,-90.39828 45.49682,-45.49681 -14.98378,-15.00881 -14.98378,-15.0088 -30.01533,30.00323 c -16.50843,16.50178 -30.45716,30.00323 -30.99717,30.00323 -0.54002,0 -7.62479,-6.63187 -15.74395,-14.7375 l -14.76211,-14.73749 -15.00323,14.97821 -15.00323,14.97822 30.24947,30.26167 30.24947,30.26167 45.49682,-45.49682 z M 214.54536,481.9477 c -1.03472,-0.0284 -6.60631,-1.76765 -12.38131,-3.86499 -5.775,-2.09733 -13.65,-5.25523 -17.5,-7.01754 -3.85,-1.76231 -11.05,-5.50559 -16,-8.31841 -4.95,-2.81281 -13.60608,-8.18744 -19.23574,-11.94361 -5.62966,-3.75617 -13.95466,-9.81019 -18.5,-13.45337 -4.54534,-3.64318 -14.26283,-12.52492 -21.59442,-19.7372 l -13.330158,-13.11323 -9.282317,-11.5 C 81.61614,386.67435 73.991927,376.37339 69.778719,370.10832 65.565511,363.84325 59.59068,354.21374 56.501317,348.7094 c -3.089363,-5.50434 -8.221886,-15.45338 -11.405605,-22.10897 -3.183719,-6.65559 -7.995363,-17.72608 -10.692541,-24.60108 -2.697178,-6.875 -6.520712,-17.675 -8.496741,-24 -1.976029,-6.325 -4.743957,-15.775 -6.15095,-21 -1.406993,-5.225 -3.698678,-14.66695 -5.092634,-20.98212 -1.393956,-6.31517 -3.632567,-18.46517 -4.9746913,-27 C 8.3460305,200.4824 6.541549,186.74935 5.6781957,178.49935 l -1.5697332,-15 -0.9502368,-28 c -0.5226303,-15.4 -0.9601221,-29.9125 -0.9722039,-32.25 l -0.021967,-4.249996 10.7500002,-0.01583 c 5.9125,-0.0087 16.093551,-0.45853 22.624558,-0.999611 l 11.874558,-0.983783 8.95274,-2.101854 c 4.924008,-1.15602 11.730457,-3.228575 15.125443,-4.605679 l 6.172701,-2.503826 8,-5.224476 8,-5.224476 6.546925,-6.420234 c 3.60081,-3.531128 12.45749,-13.188442 19.68151,-21.460698 l 13.13459,-15.040465 5.86241,-5.098973 c 3.22433,-2.804435 8.8534,-7.189819 12.50905,-9.745298 l 6.64663,-4.646325 6.30944,-2.853503 c 3.47019,-1.569427 9.45944,-3.8274661 13.30944,-5.0178649 l 7,-2.1643616 9.5,-1.4404769 9.5,-1.440477 11,0 11,0 9.75154,1.4698861 9.75153,1.4698861 7.74847,2.587708 7.74846,2.5877082 7.41868,3.986079 c 4.08028,2.192343 9.25528,5.411849 11.5,7.154457 2.24473,1.742607 6.59558,5.324086 9.66857,7.958842 3.07298,2.634755 9.59798,9.359424 14.5,14.943708 4.90201,5.584284 12.06275,13.737974 15.91275,18.119311 l 7,7.966066 7.95789,6.369003 7.9579,6.369003 7.5421,3.903451 7.54211,3.903451 6.94242,2.126723 c 3.81833,1.169697 10.98542,2.780628 15.92686,3.579847 l 8.98444,1.453125 18.82314,0.675792 18.82314,0.675793 -0.0192,16.094178 c -0.0106,8.85181 -0.46099,24.19419 -1.00097,34.09419 -0.53998,9.9 -1.45527,22.725 -2.03399,28.5 -0.57871,5.775 -1.93689,16.575 -3.01817,24 -1.08128,7.425 -2.88679,18.225 -4.01225,24 -1.12547,5.775 -3.18923,15.37145 -4.58614,21.32545 l -2.53984,10.82546 -7.14472,-0.66217 -7.14473,-0.66218 -12,1.12001 -12,1.12001 -8.85342,2.07431 c -4.86938,1.14087 -12.51938,3.4067 -17,5.03518 -4.48062,1.62848 -12.36398,5.17491 -17.51859,7.88094 l -9.37201,4.92007 -8.0183,5.76146 -8.01829,5.76146 -9.41496,9.5 -9.41495,9.5 -6.44038,9 -6.44037,9 -4.44019,9 c -2.4421,4.95 -5.55147,12.15 -6.9097,16 -1.35823,3.85 -3.16178,9.475 -4.00789,12.5 -0.84611,3.025 -2.23871,9.88266 -3.09467,15.23923 l -1.55627,9.73924 0,12.02153 0,12.02153 1.56089,9.70001 c 0.85849,5.33501 2.45199,12.94812 3.54112,16.91802 1.08912,3.96991 3.08672,9.94112 4.43911,13.26936 1.35238,3.32823 2.45888,6.46696 2.45888,6.97494 l 0,0.9236 -14.25,7.0299 -14.25,7.02991 -9.11869,3.06636 c -5.01528,1.68651 -9.96528,3.04313 -11,3.01472 z m 0.36869,-39.01881 1.25,0.0705 0,-202 0,-201.999996 -3.42764,0 c -1.8852,0 -6.89002,0.481573 -11.12183,1.070163 -4.2318,0.588589 -10.57861,1.961072 -14.10403,3.049962 l -6.40984,1.9798 -5.954,3.489544 -5.954,3.489544 -6.06067,5.611107 c -3.33336,3.086109 -10.39201,10.605831 -15.68588,16.710494 -5.29387,6.104662 -13.26051,14.852915 -17.70366,19.440561 l -8.07845,8.341171 -7.5,5.72119 c -4.125,3.14665 -10.2,7.34022 -13.5,9.31903 -3.299995,1.97881 -9.824995,5.16865 -14.499995,7.08853 -4.675,1.91989 -12.1,4.41662 -16.5,5.54829 -4.4,1.13168 -10.475,2.50131 -13.5,3.04362 -3.025,0.54232 -7.920579,1.28622 -10.879064,1.6531 l -5.379064,0.66707 0.675441,11.63841 c 0.371493,6.40112 1.109229,16.58841 1.639414,22.63841 0.530185,6.05 1.870266,17.525 2.977959,25.5 1.107693,7.975 2.93957,19.225 4.070837,25 1.131268,5.775 3.350582,15.675 4.93181,22 1.581228,6.325 4.745243,17.35 7.031145,24.5 2.285902,7.15 5.944967,17.5 8.131255,23 2.186289,5.5 6.35833,15.01805 9.271203,21.15123 2.912873,6.13317 7.891545,15.58317 11.063716,21 3.17217,5.41682 8.816993,14.34877 12.544043,19.84877 3.72706,5.5 10.34669,14.275 14.71028,19.5 4.36359,5.225 12.31574,13.88014 17.67145,19.23365 5.3557,5.35351 13.85557,13.04792 18.8886,17.0987 5.03304,4.05078 12.07597,9.36857 15.65097,11.81733 3.575,2.44875 9.2,6.07816 12.5,8.06537 3.3,1.9872 10.1031,5.67976 15.11801,8.20568 5.01491,2.52591 10.86491,5.23287 13,6.01546 2.13509,0.78259 4.44449,1.45459 5.13199,1.49335 z" />
                        <path style="fill:#8f8f8f"
                              d="m 391.66405,513.89355 -9,-0.0978 -8.41641,-1.41027 -8.4164,-1.41027 -9.0836,-3.07948 -9.08359,-3.07948 -6.5,-3.52412 c -3.575,-1.93826 -8.97428,-5.15957 -11.9984,-7.15846 -3.02412,-1.9989 -8.83543,-6.78436 -12.91403,-10.63436 l -7.41563,-7 -5.61345,-7.53649 -5.61346,-7.53649 -4.10735,-7.96351 c -2.25904,-4.37993 -5.26651,-11.36291 -6.68326,-15.51774 l -2.5759,-7.55423 -1.53926,-8.82676 -1.53926,-8.82672 0,-10.73802 0,-10.73802 1.53926,-8.82676 1.53926,-8.82676 2.5759,-7.55423 c 1.41675,-4.15483 4.42422,-11.13781 6.68326,-15.51774 l 4.10735,-7.96351 5.61346,-7.53649 5.61345,-7.53649 7.41403,-7.00891 7.41403,-7.00891 6.5,-4.28799 c 3.575,-2.35839 9.65,-5.81293 13.5,-7.67676 3.85,-1.86382 10.375,-4.51183 14.5,-5.88445 l 7.5,-2.49568 9,-1.56546 9,-1.56545 9,0 9,0 8.87356,1.55214 c 4.88045,0.85368 12.53045,2.70512 17,4.1143 4.46954,1.40919 10.82644,3.91184 14.12644,5.56144 3.3,1.6496 8.925,4.93287 12.5,7.29615 3.575,2.36328 9.09972,6.57351 12.27716,9.35607 3.17743,2.78256 8.02618,7.62929 10.775,10.77051 2.74881,3.14122 6.65571,8.209 8.68199,11.26173 2.02629,3.05272 5.13147,8.48827 6.90042,12.07898 1.76894,3.59072 4.12369,8.99767 5.23276,12.01544 1.10907,3.01777 2.82144,8.41185 3.80525,11.98685 l 1.78876,6.5 0,19.5 0,19.5 -1.78876,6.5 c -0.98381,3.575 -2.69618,8.96908 -3.80525,11.98685 -1.10907,3.01777 -3.46382,8.42472 -5.23276,12.01544 -1.76895,3.59071 -4.87413,9.02626 -6.90042,12.07898 -2.02628,3.05273 -5.83324,7.99579 -8.45991,10.98457 -2.62666,2.98879 -7.02541,7.51098 -9.775,10.04931 -2.74958,2.53832 -8.10901,6.73083 -11.90983,9.31667 -3.80083,2.58584 -9.5507,6.03424 -12.77749,7.66312 -3.2268,1.62888 -9.80439,4.28078 -14.61688,5.89312 l -8.74998,2.93151 -9.47253,1.53619 -9.47253,1.5362 -9,-0.0978 z m -13.51027,-44.8942 c 0.27612,0 20.64138,-20.13562 45.25615,-44.74583 l 44.75412,-44.74584 0,-1.01667 c 0,-0.55917 -6.64163,-7.64722 -14.75918,-15.75124 L 438.6457,348.0052 408.66112,378.00228 c -16.49151,16.49839 -30.39363,29.99707 -30.8936,29.99707 -0.49996,0 -7.28898,-6.525 -15.08671,-14.5 -7.79773,-7.975 -14.58603,-14.5 -15.08512,-14.5 -0.49908,0 -7.55183,6.63332 -15.67276,14.74072 l -14.76534,14.74072 30.24708,30.25928 c 16.6359,16.6426 30.473,30.25928 30.74911,30.25928 z m -163.90489,12.92472 c -0.87166,-0.0414 -5.18484,-1.32709 -9.58484,-2.85706 -4.4,-1.52998 -12.6906,-4.9367 -18.42355,-7.5705 -5.73295,-2.63379 -14.28295,-7.01613 -19,-9.73854 -4.71705,-2.7224 -12.85145,-7.81512 -18.07645,-11.31714 -5.225,-3.50202 -13.325,-9.39598 -18,-13.09768 l -8.5,-6.73036 -15.05672,-15.05672 -15.056716,-15.05672 -6.751191,-8.5 c -3.713154,-4.675 -10.264514,-13.675 -14.558577,-20 -4.294063,-6.325 -10.650823,-16.44421 -14.126135,-22.48712 -3.475312,-6.04292 -8.880401,-16.39292 -12.011309,-23 -3.130908,-6.60709 -7.729243,-17.18788 -10.218522,-23.51288 -2.489278,-6.325 -6.343636,-17.125 -8.565239,-24 -2.221603,-6.875 -5.177474,-16.775 -6.568601,-22 -1.391128,-5.225 -3.860981,-15.8 -5.488564,-23.5 -1.627583,-7.7 -4.099192,-21.875 -5.4924654,-31.5 l -2.5332242,-17.5 -1.5363658,-19.35512 -1.5363659,-19.35512 0,-23.39488 0,-23.394876 12.3263223,0 12.326323,0 10.923677,-1.096484 10.923678,-1.096483 9.5,-2.453 9.5,-2.453 8,-3.884718 8,-3.884717 8.202508,-6.598203 8.202507,-6.598202 14.58708,-16.717597 14.58709,-16.717596 8.15911,-7.305305 c 4.48751,-4.017918 11.23874,-9.352637 15.00273,-11.854933 l 6.84362,-4.549628 8.58071,-3.498319 8.58071,-3.4983194 9.12696,-1.9414634 9.12697,-1.9414634 14,-0.5539216 14,-0.5539217 10,1.5354261 10,1.5354261 8.5,2.6514215 8.5,2.6514218 7.32402,3.910296 c 4.0282,2.150663 10.01183,5.978524 13.29694,8.506358 3.28511,2.527834 8.994,7.591006 12.68642,11.251493 3.69243,3.660488 12.16383,12.973622 18.82535,20.695853 l 12.11186,14.040422 5.8777,5.078732 c 3.23274,2.793303 9.02771,7.097933 12.87771,9.565845 l 7,4.487113 6.66984,2.643449 c 3.66842,1.453896 10.41842,3.528654 15,4.610573 l 8.33016,1.967126 11,1.032324 11,1.032323 12.25,8.36e-4 12.25,8.36e-4 -0.006,12.749996 c -0.003,7.0125 -0.46192,22.425 -1.01968,34.25 l -1.01411,21.5 -2.03137,17.98142 -2.03138,17.98141 -3.43199,18.51859 c -1.8876,10.18522 -4.45213,22.277 -5.69896,26.87063 l -2.26695,8.35204 -15.5,0.29059 -15.5,0.2906 -8.6608,1.59692 -8.66081,1.59693 -10.60122,3.4727 -10.60123,3.47271 -10.07304,5.17417 -10.07304,5.17416 -7.50932,5.38769 c -4.13013,2.96323 -10.19417,7.73934 -13.47565,10.61357 -3.28147,2.87423 -8.89813,8.60087 -12.48146,12.72587 -3.58333,4.125 -8.46482,10.425 -10.84776,14 -2.38293,3.575 -6.14436,9.875 -8.35872,14 -2.21436,4.125 -5.41888,11.325 -7.12116,16 -1.70228,4.675 -3.79399,11.18377 -4.64824,14.46393 -0.85424,3.28015 -2.18305,9.80515 -2.9529,14.5 l -1.39973,8.53607 -0.0143,13.5 -0.0143,13.5 1.57139,9 c 0.86427,4.95 2.49059,12.375 3.61405,16.5 1.12346,4.125 3.17051,10.33189 4.549,13.79308 1.37849,3.46119 2.33823,6.42464 2.13276,6.58543 -0.20548,0.16079 -4.19859,2.35016 -8.87359,4.86527 -4.675,2.51511 -12.325,6.14714 -17,8.07119 -4.675,1.92404 -11.38682,4.44029 -14.91516,5.59165 -3.52833,1.15136 -7.12833,2.0595 -8,2.0181 z m 0.16516,-38.92956 1.75,0.005 0,-202.14853 0,-202.14853 -8.26595,0.583337 -8.26596,0.583336 -7.09984,1.614825 -7.09984,1.614824 -7.19523,3.700371 -7.19524,3.700371 -6.23502,5.5 c -3.42926,3.025 -10.7143,10.625919 -16.18897,16.890932 -5.47467,6.265012 -13.55395,15.230404 -17.95395,19.923092 l -8,8.532162 -9.92796,7.40624 -9.92795,7.40625 -8.572042,4.29902 -8.572043,4.29901 -9.536283,3.04936 -9.536283,3.04935 -8.463717,1.5031 c -4.655044,0.82671 -10.601217,1.78681 -13.213717,2.13356 l -4.75,0.63047 0,4.50133 c 0,2.47574 0.470358,11.11066 1.045241,19.18873 0.574882,8.07806 1.717563,20.08739 2.539292,26.68739 0.821728,6.6 2.166471,16.05 2.988318,21 0.821847,4.95 2.656443,14.4 4.07688,21 1.420438,6.6 4.110446,17.625 5.977796,24.5 1.867351,6.875 5.90463,19.475 8.971733,28 l 5.576551,15.5 7.816719,16 c 4.299196,8.8 10.417888,20.275 13.597092,25.5 3.179205,5.225 8.686723,13.55 12.238933,18.5 3.55221,4.95 9.03455,12.15 12.18298,16 3.14842,3.85 10.48136,11.79315 16.29542,17.65145 l 10.57102,10.65145 9.81101,7.92083 c 5.39606,4.35646 13.18601,10.15898 17.31101,12.8945 4.125,2.73553 10.71429,6.888 14.64287,9.22773 3.92857,2.33972 11.57857,6.25436 17,8.6992 5.42142,2.44484 10.64463,4.44734 11.60713,4.45 z" />
                        <path style="fill:#6d6d6d"
                              d="m 391.16405,513.88909 c -3.575,-0.0575 -10.55,-0.70448 -15.5,-1.43762 l -9,-1.33298 -7.72034,-2.5398 c -4.24618,-1.39689 -11.42257,-4.36801 -15.94751,-6.60247 l -8.22718,-4.06268 -7.88333,-5.67604 -7.88334,-5.67605 -6.82095,-7.18069 -6.82096,-7.18069 -4.9587,-7.35036 c -2.72728,-4.0427 -6.30837,-10.05036 -7.95797,-13.35036 -1.6496,-3.3 -4.16712,-9.6 -5.59447,-14 -1.42736,-4.4 -3.29046,-11.76221 -4.14023,-16.36047 l -1.54502,-8.36047 0,-10.77906 0,-10.77906 1.58496,-8.36047 c 0.87174,-4.59826 2.88578,-12.41047 4.47566,-17.36047 l 2.89068,-9 4.41839,-7.73475 c 2.43011,-4.25412 6.72335,-10.84397 9.54052,-14.64413 l 5.12213,-6.90937 6.81902,-6.43272 6.81902,-6.43271 8.41481,-5.50147 8.41481,-5.50147 8.22443,-3.67774 c 4.52344,-2.02276 10.82344,-4.37791 14,-5.23368 3.17657,-0.85577 9.82557,-2.19498 14.77557,-2.97602 l 9,-1.42007 7,-0.012 7,-0.012 9.80348,1.47768 9.80348,1.47769 8.93362,2.99303 c 4.91348,1.64617 11.30191,4.19313 14.19651,5.65992 2.8946,1.46678 8.41291,4.73297 12.26291,7.25819 l 7,4.59131 8.67104,8.33164 8.67103,8.33165 4.9522,7.18355 c 2.7237,3.95095 6.64801,10.55855 8.72068,14.68355 2.07266,4.125 4.84421,10.65 6.15899,14.5 l 2.39051,7 1.46778,8.38099 1.46777,8.38091 0,11.73802 0,11.73802 -1.48979,8.54309 -1.48979,8.54309 -2.63584,7.3379 c -1.44971,4.03584 -4.21135,10.4879 -6.13698,14.3379 -1.92563,3.85 -5.72963,10.2326 -8.45333,14.18355 l -4.9522,7.18355 -8.67103,8.33165 -8.67104,8.33164 -7.47267,4.90275 c -4.10997,2.69652 -10.6798,6.38454 -14.59961,8.19561 -3.91982,1.81106 -10.90712,4.38791 -15.52733,5.72631 l -8.40039,2.43346 -9,1.10292 c -4.95,0.60661 -11.925,1.05584 -15.5,0.9983 z m -13.01022,-44.88974 c 0.27613,0 20.86469,-20.35894 45.75234,-45.24208 l 45.25028,-45.24208 -15.23712,-15.26095 -15.23712,-15.26094 -30.26011,30.2479 -30.2601,30.2479 -15.24106,-15.24106 -15.24107,-15.24107 -15.26094,15.23711 -15.26093,15.23711 30.24688,30.25908 c 16.63578,16.6425 30.47281,30.25908 30.74895,30.25908 z m -163.84512,12.97941 c -0.35456,-0.0113 -4.69466,-1.37181 -9.64466,-3.02332 l -9,-3.00273 -15.15968,-7.43896 -15.15967,-7.43896 -14.84033,-9.92311 -14.84032,-9.9231 -11,-9.48877 c -6.05,-5.21883 -15.50557,-14.1579 -21.01237,-19.86462 -5.506794,-5.70671 -13.422622,-14.65084 -17.59072,-19.87584 -4.168099,-5.225 -10.508905,-13.775 -14.090681,-19 -3.581775,-5.225 -8.674567,-13.097 -11.317314,-17.49333 -2.642748,-4.39633 -7.175353,-12.49633 -10.072455,-18 -2.897103,-5.50367 -7.944936,-16.30667 -11.217409,-24.00667 -3.272472,-7.7 -8.030961,-19.99623 -10.574419,-27.32495 -2.543458,-7.32872 -6.40814,-20.15372 -8.588182,-28.5 -2.180043,-8.34628 -4.865089,-19.45005 -5.966771,-24.67505 -1.101681,-5.225 -2.885033,-14.9 -3.963004,-21.5 -1.0779713,-6.6 -2.4381309,-15.825 -3.0225766,-20.5 -0.5844457,-4.675 -1.7423685,-17.275 -2.5731618,-28 l -1.5105332,-19.5 -1.993e-4,-22.25 -1.994e-4,-22.249996 12.8940453,0 12.894046,0 10.136011,-1.040151 10.136011,-1.040152 9.641005,-2.445641 9.641005,-2.445642 6.308496,-2.952101 c 3.469673,-1.623656 8.455195,-4.403998 11.078939,-6.178537 2.623743,-1.774539 7.619565,-5.697693 11.101825,-8.718118 l 6.331382,-5.491683 11.92819,-13.793151 c 6.5605,-7.586233 14.96138,-16.80689 18.66861,-20.490348 3.70724,-3.683459 9.90979,-9.090757 13.78346,-12.016219 l 7.04302,-5.31902 9.45698,-4.4636 9.45697,-4.4635995 8,-2.0182507 c 4.4,-1.110038 11.81319,-2.4919963 16.47377,-3.0710186 4.66057,-0.5790223 12.08557,-1.0515002 16.5,-1.0499508 4.41442,0.00155 12.07623,0.4991315 17.02623,1.1057382 l 9,1.1029212 8.5,2.454091 8.5,2.4540911 7.14778,3.4285841 7.14778,3.428584 7.85222,5.834961 c 4.31872,3.209228 10.55222,8.510314 13.85222,11.780189 3.3,3.269876 10.23766,10.886858 15.41702,16.926626 5.17935,6.039768 11.70435,13.378953 14.5,16.309299 2.79564,2.930346 7.78298,7.491507 11.08298,10.135914 3.3,2.644407 8.7,6.385595 12,8.313752 l 6,3.50574 8.71833,3.069047 8.71834,3.069046 8.78166,1.587334 8.78167,1.587334 19.90022,0.606842 19.90022,0.606843 -0.69907,25.595122 c -0.38448,14.07731 -1.13023,31.44512 -1.65723,38.59512 -0.52699,7.15 -1.87719,20.425 -3.00044,29.5 l -2.04227,16.5 -3.91336,19.5 c -2.15234,10.725 -4.49267,21.42209 -5.20071,23.77131 l -1.28736,4.27131 -15.5,0.36724 -15.5,0.36723 -8.75883,1.61811 c -4.81735,0.88997 -13.09754,3.00793 -18.40042,4.70659 l -9.64159,3.08848 -9.09958,4.35518 c -5.00477,2.39535 -12.47458,6.58324 -16.59958,9.30641 -4.125,2.72318 -11.1,8.08124 -15.5,11.9068 -4.4,3.82556 -10.32896,9.64577 -13.17546,12.9338 -2.84651,3.28803 -7.60857,9.36948 -10.58237,13.51433 l -5.4069,7.5361 -4.65984,9.0223 -4.65984,9.02231 -3.44542,10.35625 c -1.89498,5.69594 -4.26099,14.18125 -5.2578,18.85625 l -1.81237,8.5 0,19.5 0,19.5 1.80089,8.5 c 0.99049,4.675 3.56367,13.65182 5.71818,19.94848 2.15451,6.29667 3.81911,11.52988 3.69911,11.62937 -0.12,0.0995 -5.16818,2.67784 -11.21818,5.72967 -6.05,3.05184 -13.7,6.65869 -17,8.01522 -3.3,1.35654 -9.0849,3.41386 -12.85534,4.57184 -3.77043,1.15798 -7.14543,2.09616 -7.5,2.08483 z m 1.09931,-38.63019 0.75603,-0.46725 0,-201.94099 0,-201.940976 -6.25,0.02164 -6.25,0.02164 -9,1.971331 -9,1.97133 -7,3.482069 -7,3.482068 -6.65667,5.774959 -6.65667,5.774959 -15.00965,17.091969 -15.00965,17.091969 -6.33368,5.515442 c -3.48352,3.03349 -9.08271,7.52144 -12.44264,9.97322 -3.35993,2.45178 -9.716995,6.33489 -14.126816,8.62913 l -8.017854,4.17134 -10.373182,3.4598 -10.373183,3.45979 -10,1.59201 c -5.5,0.8756 -11.4625,1.82014 -13.25,2.09898 l -3.25,0.50698 0,5.01729 c 0,2.75952 0.470358,11.62662 1.045241,19.70469 0.574882,8.07806 1.721527,20.08739 2.548099,26.68739 0.826572,6.6 2.400366,17.175 3.497319,23.5 1.096952,6.325 3.143947,16.675 4.548877,23 1.404929,6.325 4.725718,18.7 7.379531,27.5 l 4.825115,16 5.626653,14 5.626654,14 8.033397,15.5 8.033397,15.5 8.008597,11.93438 c 4.404725,6.56391 11.357095,16.09761 15.449705,21.18599 l 7.44111,9.25161 11.63457,11.67781 11.63457,11.67782 9.08358,7.18055 c 4.99597,3.9493 12.00858,9.19649 15.58358,11.66041 3.575,2.46393 10.26166,6.67806 14.85924,9.36473 4.59759,2.68668 13.14487,7.02199 18.99397,9.63402 l 10.63472,4.74916 0.75604,-0.46726 z" />
                        <path style="fill:#4d4d4d"
                              d="m 391.69028,513.86961 c -2.76442,-0.0713 -8.29014,-0.50939 -12.27936,-0.97343 -3.98922,-0.46403 -10.06422,-1.55679 -13.5,-2.42835 -3.43578,-0.87156 -8.72187,-2.49428 -11.74687,-3.60604 -3.025,-1.11176 -9.1,-3.89294 -13.5,-6.18039 l -8,-4.15901 -7.6845,-5.78672 -7.6845,-5.78672 -6.16559,-6.7248 -6.16558,-6.7248 -5.44651,-8.18145 -5.44651,-8.18145 -3.53142,-8.14901 -3.53141,-8.14901 -2.60221,-9.66954 -2.6022,-9.66954 0,-17.5 0,-17.5 2.6022,-9.66954 2.60221,-9.66954 3.53141,-8.14901 3.53142,-8.14901 5.44651,-8.18145 5.44651,-8.18145 6.16558,-6.7248 6.16559,-6.7248 7.70305,-5.80442 7.70305,-5.80443 8.98145,-4.59506 c 4.9398,-2.52728 11.68145,-5.5111 14.98145,-6.6307 3.3,-1.11961 9.39209,-2.73539 13.53797,-3.59063 l 7.53797,-1.55498 9.46203,-0.61404 9.46203,-0.61403 11,1.51711 11,1.5171 7.77306,2.55928 c 4.27519,1.40761 11.02519,4.11661 15,6.02001 3.97482,1.90339 10.15194,5.38803 13.72694,7.74364 l 6.5,4.28293 7.41403,7.00891 7.41403,7.00891 5.90789,7.9336 5.9079,7.9336 4.92822,10.08989 4.92821,10.08988 2.69717,9.97651 2.69716,9.97652 0,18.5 0,18.5 -2.6285,9.70581 -2.62849,9.70581 -4.03243,8.60499 c -2.21784,4.73274 -6.18264,11.84013 -8.81066,15.79419 l -4.77823,7.1892 -7.00815,7.38196 c -3.85448,4.06007 -9.48315,9.26545 -12.50815,11.5675 -3.025,2.30204 -8.2,5.79477 -11.5,7.7616 -3.3,1.96684 -9.24942,4.94835 -13.22094,6.62558 -3.97152,1.67723 -10.72152,3.96989 -15,5.09479 -4.27848,1.12491 -11.59225,2.50052 -16.25283,3.05693 -4.66057,0.5564 -10.73557,0.95326 -13.5,0.8819 z m -13.53645,-44.87026 c 0.27613,0 20.86469,-20.35894 45.75234,-45.24208 l 45.25028,-45.24208 -15.23712,-15.26095 -15.23712,-15.26094 -30.26011,30.2479 -30.2601,30.2479 -15.24106,-15.24106 -15.24107,-15.24107 -15.26094,15.23711 -15.26093,15.23711 30.24688,30.25908 c 16.63578,16.6425 30.47281,30.25908 30.74895,30.25908 z m -161.48978,12.32787 -3,0.54192 -10,-3.42283 -10,-3.42282 -14.13083,-7.01514 -14.13082,-7.01514 -13.36918,-8.90855 c -7.35304,-4.8997 -17.19417,-11.96166 -21.86917,-15.69324 l -8.5,-6.78469 -14.04619,-14.05369 -14.046185,-14.05369 -7.702268,-9.67652 C 81.63316,386.50074 74.103523,376.06016 69.13688,368.62154 l -9.030261,-13.52476 -8.419838,-16.29871 c -4.630912,-8.9643 -10.668966,-21.54255 -13.4179,-27.95167 -2.748933,-6.40912 -7.225408,-18.33412 -9.947721,-26.5 -2.722313,-8.16588 -6.333019,-20.02205 -8.02379,-26.34705 -1.690772,-6.325 -4.185105,-16.675 -5.542964,-23 -1.357858,-6.325 -3.388233,-17.35 -4.511945,-24.5 -1.1237116,-7.15 -2.5164397,-16.825 -3.0949514,-21.5 -0.5785118,-4.675 -1.7078825,-17.275 -2.5097127,-28 l -1.4578731,-19.5 -0.00793,-21.10393 -0.00793,-21.103932 19.2500002,-0.573057 19.25,-0.573056 8.5,-1.540784 c 4.675,-0.847432 11.658629,-2.61815 15.519176,-3.934929 3.860547,-1.31678 9.035547,-3.419621 11.5,-4.672981 2.464453,-1.253359 6.998596,-3.984912 10.075873,-6.070117 3.077277,-2.085205 8.211132,-6.182234 11.408567,-9.104509 3.19743,-2.922276 11.07077,-11.390359 17.49631,-18.817964 6.42554,-7.427606 15.08027,-16.823544 19.23273,-20.879864 l 7.54994,-7.375127 6.3587,-4.459338 c 3.49728,-2.452636 9.2837,-5.943138 12.8587,-7.75667 3.575,-1.813533 10.1,-4.4239868 14.5,-5.8010097 4.4,-1.3770228 11.375,-3.1120304 15.5,-3.8555723 l 7.5,-1.3518943 15.5,0.037542 15.5,0.037542 8.8724,1.7550066 8.87241,1.7550066 7.77833,2.838741 7.77834,2.8387411 6.24673,3.661112 c 3.43571,2.013612 8.76788,5.613782 11.84927,8.000378 3.08138,2.386596 9.4893,8.324331 14.23981,13.194967 4.75051,4.870636 12.70674,13.615779 17.68051,19.433652 4.97377,5.817872 11.88699,13.211978 15.36271,16.431346 l 6.31949,5.853397 7.29144,4.76195 7.29145,4.761951 7.70855,2.945042 c 4.23971,1.619773 10.85856,3.645994 14.70856,4.502714 3.85,0.85672 11.66018,2.031968 17.35595,2.611662 l 10.35596,1.053988 13.48841,0 13.48841,0 -0.6494,24.249996 c -0.35718,13.3375 -1.08703,30.55 -1.62191,38.25 -0.53487,7.7 -1.89689,21.425 -3.02671,30.5 -1.12982,9.075 -2.91023,21.225 -3.95647,27 -1.04624,5.775 -3.33684,16.6875 -5.09022,24.25 l -3.18796,13.75 -11.66903,0 -11.66902,0 -8.40901,1.08811 c -4.62495,0.59847 -12.009,1.97772 -16.409,3.065 -4.4,1.08728 -11.15,3.09637 -15,4.46464 -3.85,1.36826 -10.6,4.23535 -15,6.3713 -4.4,2.13595 -11.375,6.11901 -15.5,8.85123 -4.125,2.73222 -10.88237,7.85949 -15.01638,11.39392 -4.13401,3.53444 -10.04338,9.31515 -13.13194,12.84602 -3.08855,3.53088 -8.06824,9.84943 -11.06598,14.04122 l -5.45043,7.62145 -4.73503,9.16789 c -2.60426,5.04234 -5.64431,11.73769 -6.75566,14.87855 -1.11135,3.14087 -2.88429,8.63567 -3.93986,12.21067 -1.05557,3.575 -2.60688,10.7566 -3.44735,15.95911 l -1.52813,9.45911 0.006,13.80094 0.006,13.80095 1.58884,9.23994 c 0.87386,5.08197 2.27535,11.71495 3.11442,14.73995 0.83907,3.025 2.86207,9.03759 4.49555,13.3613 1.63348,4.32372 2.83254,7.98496 2.66459,8.1361 -0.16795,0.15114 -5.70536,2.96893 -12.30536,6.26175 -6.6,3.29283 -16.275,7.57093 -21.5,9.50688 -5.225,1.93596 -10.85,3.76379 -12.5,4.06184 z m -1.25,-37.99331 0.75,-0.45259 0,-202.07724 0,-202.077241 -9.25,0.552616 -9.25,0.552617 -6,1.622192 c -3.3,0.892206 -8.7,2.88708 -12,4.433053 l -6,2.810861 -6.78331,5.400588 -6.78331,5.400588 -15.51537,17.69017 -15.51536,17.690169 -6.70133,5.907197 c -3.68572,3.24895 -9.45035,7.91771 -12.81028,10.37501 -3.35993,2.45731 -9.659925,6.30292 -13.999998,8.54581 l -7.891037,4.07798 -9,3.051 -9,3.051 -10.157084,2.05583 c -5.586396,1.13071 -11.661396,2.06272 -13.5,2.07114 l -3.342916,0.0153 -1.406847,0.89064 -1.406847,0.89064 0.694077,13.84404 c 0.381743,7.61425 1.144614,18.34407 1.695269,23.84407 0.550656,5.5 1.90623,16.3 3.012388,24 1.106157,7.7 2.924565,18.5 4.040906,24 1.116341,5.5 3.13987,14.5 4.49673,20 1.356861,5.5 4.288673,15.85 6.515138,23 2.226464,7.15 6.314214,18.625 9.083887,25.5 2.769674,6.875 8.349055,19.07337 12.398625,27.10749 l 7.362853,14.6075 7.552422,11.81251 c 4.153824,6.49689 11.203664,16.4753 15.666304,22.17426 l 8.11389,10.36174 12.0906,12.25763 12.0906,12.25764 9.5,7.56647 c 5.225,4.16157 13.17481,10.06223 17.66625,13.1126 4.49144,3.05036 12.14144,7.71392 17,10.36346 4.85856,2.64954 12.65875,6.47076 17.33375,8.49159 l 8.5,3.67426 0.75,-0.45259 z" />
                        <path style="fill:#2e2e2e"
                              d="m 390.8081,513.86647 c -1.17923,-0.0731 -5.96905,-0.52273 -10.64405,-0.99923 l -8.5,-0.86635 -8.94419,-2.54367 -8.94418,-2.54366 -8.41319,-3.94255 c -4.62725,-2.16841 -11.17737,-5.81286 -14.55581,-8.09879 -3.37845,-2.28593 -8.95098,-6.60189 -12.38341,-9.59102 l -6.24078,-5.43478 -6.35612,-7.94417 -6.35612,-7.94417 -5.08456,-9.72937 -5.08457,-9.72936 -2.54383,-7.80198 c -1.39911,-4.29109 -3.22852,-11.71609 -4.06535,-16.5 l -1.5215,-8.69802 0,-9.5 0,-9.5 1.56545,-9 1.56546,-9 2.43528,-7.28278 c 1.33941,-4.00553 4.06887,-10.53053 6.06546,-14.5 1.99659,-3.96947 5.09426,-9.50942 6.88371,-12.31101 1.78945,-2.80158 6.03053,-8.3203 9.42461,-12.26382 l 6.17107,-7.17004 9.14571,-7.06827 9.14572,-7.06828 10.04557,-4.87631 10.04557,-4.87631 8.54229,-2.44898 8.54229,-2.44898 11.01659,-1.10135 11.01659,-1.10135 10.44112,1.05915 c 5.74262,0.58253 13.14112,1.7376 16.44112,2.56682 3.3,0.82923 8.36374,2.37569 11.25275,3.43659 2.88902,1.0609 8.06402,3.33731 11.5,5.05869 3.43599,1.72138 9.38025,5.20028 13.20947,7.73088 l 6.96221,4.6011 6.95498,6.53213 6.95499,6.53212 5.61028,7.53649 5.61029,7.53649 4.10735,7.96351 c 2.25904,4.37993 5.26651,11.36291 6.68326,15.51774 l 2.5759,7.55423 1.53926,8.82676 1.53926,8.82676 0,10.73802 0,10.73802 -1.53926,8.82676 -1.53926,8.82676 -2.59095,7.55423 c -1.42502,4.15483 -3.93491,10.25423 -5.57752,13.55423 -1.64261,3.3 -5.05706,9.133 -7.58766,12.96222 l -4.6011,6.96221 -6.53213,6.95498 -6.53212,6.95499 -7.53649,5.61028 -7.53649,5.61029 -7.96351,4.14304 c -4.37993,2.27868 -10.43851,5.05267 -13.46351,6.16443 -3.025,1.11176 -8.2,2.69984 -11.5,3.52907 -3.3,0.82922 -10.66018,1.98036 -16.35595,2.55808 -5.69578,0.57773 -11.32078,0.99062 -12.5,0.91753 z m -13.14618,-44.86712 c 0.5557,0 21.47978,-20.47311 46.49794,-45.4958 l 45.48756,-45.49581 -14.97918,-15.00419 c -8.23855,-8.25231 -15.43762,-15.0042 -15.99794,-15.0042 l -1.01875,0 -29.98476,29.99726 -29.98477,29.99727 -15.0209,-14.99745 -15.0209,-14.99745 -15.47891,15.50311 -15.47891,15.50312 29.98458,29.99707 c 16.49151,16.49839 30.43924,29.99707 30.99494,29.99707 z m -162.80477,12.98281 c -0.1062,-0.009 -4.6931,-1.53588 -10.1931,-3.39207 -5.5,-1.85619 -13.98053,-5.21426 -18.84562,-7.46238 -4.86509,-2.24812 -12.96509,-6.42857 -18,-9.28989 -5.03491,-2.86132 -13.03702,-7.79523 -17.78246,-10.96425 -4.74545,-3.16902 -13.29545,-9.46442 -19,-13.98979 l -10.37192,-8.22793 -13.5,-13.58491 -13.499995,-13.58492 -8.5,-10.84062 c -4.675,-5.96234 -11.56227,-15.40934 -15.305044,-20.99333 -3.742774,-5.584 -9.330137,-14.62847 -12.416363,-20.09882 -3.086225,-5.47036 -8.62444,-16.27036 -12.307143,-24 -3.682704,-7.72965 -8.760001,-19.4539 -11.282882,-26.0539 -2.522881,-6.6 -6.158635,-16.95 -8.079453,-23 -1.920818,-6.05 -4.854866,-16.4 -6.520106,-23 -1.66524,-6.6 -3.924755,-16.275 -5.021143,-21.5 -1.096388,-5.225 -2.672429,-13.55 -3.502314,-18.5 -0.8298853,-4.95 -2.2153083,-14.625 -3.0787186,-21.5 -0.8634103,-6.875 -2.2135096,-21.275 -3.0002205,-32 l -1.4303836,-19.5 -0.028115,-20.75 -0.028115,-20.749996 14.2500007,-0.0082 14.25,-0.0082 9,-1.022498 c 4.95,-0.562374 12.769647,-1.913816 17.376993,-3.003204 l 8.376993,-1.980705 8.249643,-3.865913 8.249643,-3.865913 5.873364,-4.257617 c 3.23035,-2.341689 8.282365,-6.559394 11.226699,-9.372678 2.94433,-2.813294 10.64996,-11.190072 17.12362,-18.615072 6.47366,-7.425 15.08966,-16.677176 19.14666,-20.560392 4.05701,-3.883215 10.37326,-9.181226 14.0361,-11.773358 l 6.65973,-4.712966 7.53385,-3.480854 7.53385,-3.4808539 9.30643,-2.4957825 9.30642,-2.4957824 11,-1.0661595 11,-1.0661594 10,0.6419639 10,0.6419639 10.72251,2.3632062 10.72251,2.3632062 8.54447,4.0040725 8.54447,4.004072 7.73302,5.486472 7.73302,5.486473 8.57892,8.820439 c 4.71841,4.851241 12.87716,13.770439 18.13057,19.820439 5.2534,6.05 12.19289,13.502017 15.42108,16.560038 3.22819,3.058021 8.56943,7.383225 11.86943,9.611565 3.3,2.22834 8.25,5.187578 11,6.576085 2.75,1.388506 8.15,3.506574 12,4.706816 3.85,1.200242 10.6,2.862788 15,3.694547 l 8,1.512288 19.75,0.556277 19.75,0.556277 -0.002,23.113053 -0.002,23.11305 -0.97975,13.5 c -0.53887,7.425 -1.46805,18.225 -2.06485,24 -0.5968,5.775 -2.40698,18.6 -4.02261,28.5 -1.61564,9.9 -4.07825,22.95 -5.47247,29 -1.39423,6.05 -2.79832,12.2375 -3.12021,13.75 l -0.58611,2.75 -13.27563,0 -13.27562,0 -11.82453,2.0215 -11.82452,2.02151 -10.52485,3.56679 -10.52485,3.5668 -9.37201,4.90024 -9.37201,4.90024 -8.03601,5.76146 c -4.4198,3.1688 -11.6104,9.11351 -15.97911,13.21047 l -7.9431,7.44901 -6.18836,8.05099 c -3.4036,4.42804 -7.36927,9.89516 -8.81259,12.14915 -1.44332,2.25399 -4.63241,8.10399 -7.08686,13 l -4.46263,8.90184 -3.05634,9 c -1.68099,4.95 -3.7553,12.43785 -4.60958,16.63967 -0.85428,4.20181 -1.97423,12.52681 -2.48879,18.5 l -0.93555,10.86033 0.84602,11 0.84602,11 1.57754,7.5 c 0.86764,4.125 2.41952,10.2 3.44861,13.5 1.02909,3.3 2.81968,8.35767 3.97909,11.23928 l 2.10802,5.23927 -2.23118,1.46078 c -1.22715,0.80342 -7.85618,4.14006 -14.73118,7.41475 l -12.5,5.95398 -9.3069,3.09597 c -5.11879,1.70278 -9.39379,3.08824 -9.5,3.07878 z m 0.49158,-38.59695 0.81532,-0.50389 0,-201.94099 0,-201.940976 -6.25,1.71e-4 -6.25,1.72e-4 -7.79969,1.492504 -7.79969,1.492505 -7.45427,3.444087 -7.45428,3.444087 -6.13482,4.813237 -6.13481,4.813237 -13.55153,15.5 c -7.45334,8.525 -17.12276,18.966222 -21.4876,23.202717 l -7.93607,7.702709 -8.62362,6.13635 -8.62362,6.13634 -7.999995,3.81326 c -4.4,2.09729 -11.6,4.98887 -16,6.42575 -4.4,1.43687 -11.375,3.29726 -15.5,4.13421 -4.125,0.83694 -10.425,1.84277 -14,2.23519 l -6.5,0.71347 -0.338503,5.5 -0.338502,5.5 1.158952,15.5 c 0.637424,8.525 2.049803,22.25 3.13862,30.5 1.088817,8.25 3.11277,20.85 4.497672,28 1.384903,7.15 3.796885,17.95 5.35996,24 1.563076,6.05 4.500153,16.175 6.526839,22.5 2.026685,6.325 5.903575,17.17651 8.61531,24.11448 l 4.930428,12.61447 6.774423,13.38553 c 3.725933,7.36203 9.677008,18.03666 13.224612,23.72139 3.547604,5.68473 10.637734,15.92578 15.755854,22.75789 l 9.30567,12.42201 13.19433,13.32095 13.19433,13.32095 9.59811,7.59458 c 5.27896,4.17703 13.48035,10.12517 18.22532,13.21809 4.74497,3.09293 12.56705,7.71938 17.38241,10.28101 4.81535,2.56162 12.10956,6.1157 16.20936,7.89795 l 7.45416,3.24046 0.81532,-0.5039 z" />
                        <path style="fill:#161616"
                              d="m 397.66405,513.29513 -7,0.41652 -8.75064,-0.83502 -8.75063,-0.83502 -7.74937,-1.98765 c -4.26215,-1.09321 -10.59348,-3.10667 -14.06962,-4.47436 -3.47614,-1.36768 -9.13214,-4.0592 -12.56889,-5.98114 -3.43675,-1.92193 -8.93185,-5.4697 -12.21134,-7.88393 -3.27949,-2.41422 -9.00559,-7.43237 -12.72467,-11.15145 l -6.76197,-6.76197 -5.04857,-7.15088 c -2.77671,-3.93298 -6.75366,-10.52588 -8.83767,-14.65088 l -3.7891,-7.5 -2.63216,-8.34404 -2.63217,-8.34405 -1.58545,-9.65595 -1.58544,-9.65596 0.50192,-10.5 0.50192,-10.5 1.687,-8 c 0.92785,-4.4 2.60983,-10.7 3.73775,-14 1.12791,-3.3 3.74592,-9.375 5.81779,-13.5 2.07187,-4.125 6.02559,-10.69894 8.78603,-14.60875 l 5.01898,-7.10876 6.47402,-6.57034 c 3.56071,-3.61368 9.30013,-8.6508 12.75426,-11.19358 3.45413,-2.54279 9.09212,-6.19575 12.52887,-8.11768 3.43675,-1.92194 9.09275,-4.61346 12.56889,-5.98114 3.47614,-1.36769 9.69801,-3.3532 13.82638,-4.41225 l 7.50612,-1.92554 9.99388,-0.92694 9.99388,-0.92695 9.84664,0.84419 9.84664,0.84418 8.13131,2.10774 c 4.47222,1.15925 11.29518,3.42485 15.16212,5.03467 3.86695,1.60981 10.40187,4.90791 14.52205,7.3291 l 7.49124,4.40216 7.78557,6.66486 7.78557,6.66485 5.9417,7.47699 c 3.26793,4.11235 7.72783,10.49789 9.91087,14.1901 2.18305,3.6922 5.34211,10.16013 7.02013,14.37318 1.67803,4.21305 4.05495,11.63805 5.28205,16.5 l 2.23109,8.83991 -0.0564,17 -0.0564,17 -2.59407,9.66954 -2.59408,9.66954 -3.53141,8.14901 -3.53142,8.14901 -5.44651,8.18145 -5.44651,8.18145 -6.12407,6.67949 -6.12406,6.67949 -7.49391,5.64008 -7.49391,5.64008 -8.23211,4.37868 -8.23211,4.37868 -9,2.92952 -9,2.92951 -7,1.06187 c -3.85,0.58402 -10.15,1.24929 -14,1.47838 z m 25.98932,-89.2878 45.99682,-45.99682 -14.98057,-15.00558 c -8.23931,-8.25307 -15.439,-15.00558 -15.99932,-15.00558 l -1.01875,0 -29.98476,29.99726 -29.98477,29.99727 -15.25878,-15.23497 -15.25879,-15.23496 -15.0002,14.9752 c -8.25011,8.23636 -15.0002,15.4281 -15.0002,15.98165 0,0.55355 13.61081,14.62275 30.24625,31.2649 l 30.24625,30.25845 45.99682,-45.99682 z m -204.06648,56.31415 -5.07716,1.46741 -8.42284,-2.75468 c -4.63256,-1.51507 -12.69784,-4.65358 -17.92284,-6.97446 -5.225,-2.32087 -13.55,-6.51645 -18.5,-9.32349 -4.95,-2.80704 -13.54601,-8.13664 -19.10225,-11.84355 -5.55624,-3.70691 -14.78124,-10.453 -20.5,-14.99131 l -10.39775,-8.25148 -12.01548,-12.10731 -12.015475,-12.1073 -8.805262,-10.96798 c -4.842894,-6.03239 -12.573583,-16.6144 -17.179309,-23.51558 -4.605726,-6.90118 -11.551205,-18.37618 -15.434399,-25.5 -3.883195,-7.12382 -9.931398,-19.4774 -13.440452,-27.4524 -3.509054,-7.975 -8.636869,-21.04572 -11.395145,-29.04604 -2.758275,-8.00033 -6.401084,-19.70473 -8.09513,-26.00978 -1.694046,-6.30505 -4.224003,-16.63433 -5.622126,-22.95396 -1.398123,-6.31962 -3.619422,-18.01522 -4.93622,-25.99022 -1.3167993,-7.975 -3.107232,-21.025 -3.9787406,-29 -0.8715085,-7.975 -2.0340425,-22.53742 -2.5834088,-32.36093 -0.5493663,-9.82351 -0.9988479,-25.46101 -0.9988479,-34.75 l 0,-16.889066 15.2762343,0 15.276235,0 8.473765,-1.031044 c 4.660571,-0.567074 12.01568,-1.93427 16.344686,-3.038212 4.329005,-1.103942 10.629005,-3.167085 14,-4.584762 3.370994,-1.417677 9.270697,-4.608757 13.11045,-7.091289 l 6.981371,-4.513695 6.897599,-6.620499 c 3.793675,-3.641274 12.193705,-12.695499 18.666725,-20.120499 6.47302,-7.425 14.40249,-16.05963 17.62103,-19.188066 3.21855,-3.128436 9.0019,-7.99176 12.8519,-10.807387 l 7,-5.119321 8.3804,-4.033293 8.3804,-4.0332915 9.61566,-2.4392119 9.61566,-2.439212 11.50394,-0.9386753 11.50394,-0.9386752 11,0.9016515 c 6.05,0.4959084 13.25,1.3960659 16,2.0003502 2.75,0.6042842 7.925,2.0473404 11.5,3.2067915 3.575,1.1594511 9.2,3.4482067 12.5,5.0861227 3.3,1.637916 8.925,5.038742 12.5,7.557389 3.575,2.518648 9.36687,7.30309 12.87082,10.632094 3.50395,3.329004 11.89702,12.352734 18.65127,20.052734 6.75425,7.7 15.13738,16.739188 18.62918,20.087084 3.4918,3.347897 8.59873,7.679949 11.34873,9.626782 2.75,1.946833 7.35296,4.722892 10.2288,6.169019 2.87584,1.446128 7.72982,3.565072 10.78661,4.708765 3.05679,1.143693 9.70383,2.967985 14.7712,4.053983 l 9.21339,1.974542 20.75,0.581642 20.75,0.581642 -0.01,22.108267 -0.01,22.10827 -0.99963,14.5 c -0.5498,7.975 -1.67522,20.575 -2.50093,28 -0.82571,7.425 -2.43451,19.125 -3.57511,26 -1.14059,6.875 -3.15818,17.45 -4.48352,23.5 -1.32533,6.05 -3.003,13.25 -3.72815,16 l -1.31845,5 -16.93721,0.61089 -16.93722,0.61089 -8,1.70715 c -4.4,0.93893 -12.56809,3.22418 -18.15132,5.07833 l -10.15131,3.37118 -8.25814,4.15211 c -4.54197,2.28366 -10.09888,5.33746 -12.34868,6.78622 -2.2498,1.44875 -7.46555,5.17481 -11.59055,8.28012 l -7.5,5.64603 -9.04519,9.37854 -9.0452,9.37854 -6.27692,9.5 -6.27692,9.5 -4.41533,9.21984 -4.41533,9.21985 -3.39571,11.28015 -3.3957,11.28016 -1.30546,9 -1.30545,9 0.037,13 0.037,13 1.23294,8 c 0.67812,4.4 2.35173,12.02127 3.71913,16.93615 1.3674,4.91489 3.54713,11.54716 4.84384,14.73839 l 2.35766,5.80224 -8.58867,4.68169 c -4.72377,2.57493 -13.35262,6.59746 -19.17523,8.93896 -5.8226,2.34151 -12.87127,4.91762 -15.66371,5.7247 z m -4.17284,-36.40108 0.75,0.079 0,-202.6337 0,-202.63369 -9.75,0.543966 -9.75,0.543965 -6,1.608344 -6,1.608344 -6,3.080226 c -3.3,1.694124 -8.3423,4.835075 -11.20511,6.979891 l -5.20511,3.899665 -10.79489,12.203836 c -5.93719,6.712109 -13.71989,15.371663 -17.29489,19.243452 -3.575,3.87179 -9.65,9.89002 -13.5,13.373841 -3.85,3.48382 -9.925,8.28268 -13.5,10.66411 -3.575,2.38144 -9.704236,5.93622 -13.62053,7.89951 -3.916294,1.96329 -11.116294,4.90095 -16,6.52815 -4.883706,1.62719 -12.479465,3.67957 -16.879465,4.56084 -4.4,0.88126 -10.907342,1.92336 -14.46076,2.31578 l -6.46076,0.71347 0.260787,9.5 c 0.143433,5.225 0.930864,16.7 1.749846,25.5 0.818983,8.8 1.913567,18.99322 2.432408,22.65161 0.518842,3.65838 1.630538,10.92209 2.470437,16.14158 0.839898,5.21948 2.651486,14.60125 4.025752,20.84839 1.374265,6.24713 4.111682,17.20842 6.083149,24.35842 1.971467,7.15 6.061528,19.75 9.089024,28 l 5.50454,15 7.795557,16 7.795557,16 7.915882,12.58061 c 4.353731,6.91933 11.130166,16.76806 15.058746,21.88608 3.92858,5.11801 11.32636,13.82816 16.43951,19.3559 5.11314,5.52773 13.70706,13.96417 19.09759,18.74762 5.39053,4.78346 14.26116,11.88885 19.71252,15.78975 5.45135,3.90089 14.56795,9.77486 20.2591,13.05326 5.69115,3.2784 13.92135,7.5098 18.28933,9.4031 4.36798,1.89331 8.61678,3.68615 9.44178,3.98408 0.825,0.29794 1.8375,0.57723 2.25,0.62065 z" />
                        <path style="fill:#000000"
                              d="m 394.66405,513.39359 c -1.1,0.14827 -6.05,-0.0606 -11,-0.46412 l -9,-0.73369 -7,-1.63128 c -3.85,-0.89721 -9.46908,-2.54997 -12.48685,-3.6728 -3.01777,-1.12284 -8.42472,-3.48884 -12.01544,-5.25778 -3.59071,-1.76895 -9.02626,-4.87413 -12.07898,-6.90042 -3.05273,-2.02628 -8.12051,-5.93318 -11.26173,-8.68199 -3.14122,-2.74882 -7.98795,-7.59757 -10.77051,-10.775 -2.78256,-3.17744 -7.06259,-8.78863 -9.51119,-12.46932 -2.4486,-3.6807 -5.9921,-10.02552 -7.87445,-14.09962 l -3.42245,-7.40745 -2.5268,-8.71945 -2.5268,-8.71946 -1.15444,-11.38709 -1.15445,-11.3871 1.19405,-10.61143 1.19405,-10.61144 2.49475,-8.6824 2.49475,-8.6824 4.39558,-9.08564 4.39559,-9.08564 5.90693,-7.91436 5.90693,-7.91436 6.40073,-6.19748 c 3.5204,-3.40862 8.42573,-7.7081 10.90073,-9.5544 2.475,-1.8463 6.79384,-4.74853 9.59742,-6.44939 2.80358,-1.70086 8.20358,-4.44392 12,-6.0957 3.79642,-1.65177 8.95999,-3.69065 11.47459,-4.53083 2.51461,-0.84019 8.36461,-2.24962 13,-3.13208 l 8.42799,-1.60447 11.13983,-0.0456 c 6.12691,-0.0251 13.32691,0.25844 16,0.63007 2.67309,0.37163 8.23517,1.51657 12.36017,2.54432 4.125,1.02774 10.34412,2.98764 13.82026,4.35533 3.47614,1.36768 9.13214,4.0592 12.56889,5.98114 3.43675,1.92193 9.13647,5.62034 12.66605,8.21866 l 6.41742,4.72423 7.05868,7.22086 7.05868,7.22086 4.58238,6.85725 c 2.52031,3.77149 6.2108,10.105 8.20108,14.07447 1.99028,3.96947 4.71457,10.49447 6.05398,14.5 l 2.43528,7.28278 1.56546,9 1.56545,9 0,9.5 0,9.5 -1.56545,9 -1.56546,9 -2.50272,7.5 -2.50273,7.5 -4.97508,9.5 -4.97508,9.5 -7.03088,8.75438 -7.03087,8.75438 -6.93792,5.74562 c -3.81585,3.16009 -10.76023,8.07037 -15.43194,10.91174 l -8.49403,5.16612 -7.08913,2.70891 c -3.89902,1.4899 -10.30735,3.54431 -14.24073,4.56537 l -7.15159,1.85646 -8,0.58084 c -4.4,0.31946 -8.9,0.70215 -10,0.85042 z m 28.98952,-89.38646 45.99702,-45.99702 -15.48424,-15.50846 -15.48424,-15.50845 -30.51406,30.50215 -30.51405,30.50215 -15.24077,-15.24077 -15.24077,-15.24077 -15.0042,14.97919 c -8.25232,8.23856 -15.00421,15.4321 -15.00421,15.98565 0,0.55355 13.61081,14.62275 30.24625,31.2649 l 30.24625,30.25845 45.99702,-45.99702 z m -208.69585,56.94057 -3.29367,-0.0516 -10.57039,-3.77761 -10.57039,-3.77761 -13.80253,-7.16735 -13.80253,-7.16735 -11.12708,-7.33211 c -6.11989,-4.03266 -15.68801,-11.01217 -21.26247,-15.51004 l -10.13539,-8.17793 -11.95526,-11.87726 -11.955257,-11.87726 -9.516,-11.86609 c -5.233799,-6.5264 -12.676623,-16.59114 -16.539607,-22.36614 -3.862985,-5.775 -9.853206,-15.43187 -13.311602,-21.45971 -3.458397,-6.02784 -8.635953,-15.93749 -11.50568,-22.02146 -2.869727,-6.08397 -7.696608,-17.3521 -10.726403,-25.04029 -3.029795,-7.6882 -7.093012,-19.15354 -9.029371,-25.47854 -1.93636,-6.325 -4.648918,-15.775 -6.027908,-21 -1.378989,-5.225 -3.659095,-14.9 -5.066901,-21.5 -1.407806,-6.6 -3.434058,-17.625 -4.502781,-24.5 -1.0687243,-6.875 -2.6528847,-19.025 -3.5203577,-27 -0.867473,-7.975 -2.0217653,-23.275 -2.5650939,-34 -0.5433286,-10.725 -0.992173,-26.1375 -0.997432,-34.25 l -0.00956,-14.749996 16.1216626,0 16.121663,0 10.52604,-1.562967 10.52604,-1.562966 8.102297,-2.553615 c 4.456264,-1.404488 10.200847,-3.613996 12.765741,-4.910017 2.564894,-1.296022 7.514894,-4.35474 11,-6.797151 3.485106,-2.442412 8.87919,-6.929815 11.98685,-9.972007 3.10766,-3.042193 11.69774,-12.418513 19.08907,-20.836268 7.39133,-8.417755 15.49128,-17.185372 17.99989,-19.483593 2.5086,-2.298222 7.41852,-6.284646 10.91092,-8.858721 3.4924,-2.574075 9.49982,-6.269984 13.34982,-8.213131 3.85,-1.943147 10.11531,-4.5938791 13.92291,-5.8905164 l 6.92291,-2.3575222 9.03087,-1.5668813 9.03086,-1.5668813 14.61901,0.011069 14.619,0.011068 10.23714,2.0861957 10.23713,2.0861957 6.69009,2.5164452 c 3.67954,1.3840446 9.16508,3.9047836 12.19008,5.6016416 3.025,1.696858 9.1,5.908214 13.5,9.358568 4.4,3.450354 10.28987,8.6781 13.08859,11.617213 2.79873,2.939112 9.76209,10.743841 15.47414,17.343841 5.71204,6.6 13.09718,14.647411 16.4114,17.883136 l 6.02587,5.883136 8,5.257082 8,5.257082 6,2.490647 c 3.3,1.369856 8.475,3.191383 11.5,4.047838 3.025,0.856454 10.28275,2.260065 16.12834,3.119134 l 10.62834,1.561945 16.2681,0 16.26811,0 -0.60891,30.749996 -0.60891,30.75 -1.04932,10.5 c -0.57712,5.775 -1.72422,15.9 -2.54912,22.5 -0.8249,6.6 -2.67676,18.525 -4.11524,26.5 -1.43848,7.975 -3.80863,19.45 -5.267,25.5 l -2.65157,11 -16.97141,0.62656 -16.97141,0.62655 -5.74852,1.07078 c -3.16169,0.58893 -9.01169,1.99057 -13,3.11475 -3.98831,1.12419 -9.61811,2.94763 -12.51066,4.05208 -2.89255,1.10446 -8.95361,3.83246 -13.46903,6.06222 -4.51541,2.22976 -11.82378,6.46139 -16.24082,9.40361 -4.41703,2.94222 -11.0028,7.98063 -14.63504,11.19647 -3.63224,3.21584 -8.83252,8.32198 -11.55617,11.34698 -2.72365,3.025 -6.98219,8.2 -9.46343,11.5 -2.48123,3.3 -6.11766,8.7 -8.08096,12 -1.9633,3.3 -4.74281,8.34238 -6.1767,11.2053 -1.43388,2.86291 -3.91125,8.77887 -5.50527,13.14658 -1.59401,4.3677 -3.82656,11.92532 -4.96121,16.7947 l -2.06301,8.85342 -1.11935,11 -1.11935,11 0.68321,10 c 0.37576,5.5 1.27253,13.375 1.99283,17.5 0.72029,4.125 2.19729,10.65 3.28222,14.5 1.08493,3.85 2.9218,9.37916 4.08193,12.28702 1.16013,2.90786 2.10933,5.8495 2.10933,6.53697 l 0,1.24994 -12.25,6.12689 c -6.7375,3.36979 -16.61785,7.74066 -21.95633,9.71304 l -9.70633,3.58614 -3.29367,-0.0516 z m -0.0437,-36.98885 1.25,0.0405 0,-202.975 0,-202.974996 -2.75,0.426617 c -1.5125,0.234639 -6.18098,0.662872 -10.37439,0.951628 l -7.6244,0.525012 -7.95402,2.512673 -7.95401,2.512672 -6.16719,3.986045 c -3.39195,2.192324 -8.25686,5.909639 -10.8109,8.260699 -2.55405,2.35106 -10.61196,11.024654 -17.90647,19.274654 -7.2945,8.25 -16.34431,17.997998 -20.11068,21.662218 l -6.84794,6.662218 -8,5.73418 -8,5.73419 -9.999995,4.79762 -10,4.79761 -9,2.62349 -9,2.6235 -12,1.75624 -12,1.75624 0.31553,9.92624 c 0.173541,5.45944 0.974156,17.12625 1.779145,25.92625 0.804988,8.8 2.156177,20.725 3.002643,26.5 0.846465,5.775 2.438704,15.225 3.538308,21 1.099603,5.775 3.576193,16.8 5.503532,24.5 1.927338,7.7 5.294092,19.50737 7.481675,26.23861 2.187583,6.73123 6.24261,17.74923 9.011172,24.48445 2.768561,6.73521 7.937026,17.95543 11.485477,24.93381 l 6.451728,12.68798 7.538661,11.82758 c 4.146259,6.50516 10.763684,16.10257 14.705374,21.32757 l 7.16673,9.5 16.01001,16.06218 16.01001,16.06218 10.66447,7.94614 c 5.86547,4.37038 15.33415,10.76264 21.04152,14.20502 l 10.37703,6.25887 10.95849,4.94231 c 6.02717,2.71827 11.52099,4.96053 12.20849,4.9828 z" />
                    </g>
                </svg>
