<?xml version="1.0" encoding="UTF-8" standalone="no"?>
<!-- Created with Inkscape (http://www.inkscape.org/) -->

<svg
   xmlns:dc="http://purl.org/dc/elements/1.1/"
   xmlns:cc="http://creativecommons.org/ns#"
   xmlns:rdf="http://www.w3.org/1999/02/22-rdf-syntax-ns#"
   xmlns:svg="http://www.w3.org/2000/svg"
   xmlns="http://www.w3.org/2000/svg"
   xmlns:sodipodi="http://sodipodi.sourceforge.net/DTD/sodipodi-0.dtd"
   xmlns:inkscape="http://www.inkscape.org/namespaces/inkscape"
   id="svg2996"
   version="1.1"
   inkscape:version="0.48.4 r9939"
   width="512"
   height="512"
   sodipodi:docname="icon.png">
  <metadata
     id="metadata3002">
    <rdf:RDF>
      <cc:Work
         rdf:about="">
        <dc:format>image/svg+xml</dc:format>
        <dc:type
           rdf:resource="http://purl.org/dc/dcmitype/StillImage" />
        <dc:title></dc:title>
      </cc:Work>
    </rdf:RDF>
  </metadata>
  <defs
     id="defs3000" />
  <sodipodi:namedview
     pagecolor="#ffffff"
     bordercolor="#666666"
     borderopacity="1"
     objecttolerance="10"
     gridtolerance="10"
     guidetolerance="10"
     inkscape:pageopacity="0"
     inkscape:pageshadow="2"
     inkscape:window-width="1680"
     inkscape:window-height="988"
     id="namedview2998"
     showgrid="false"
     inkscape:zoom="0.8"
     inkscape:cx="771.00015"
     inkscape:cy="182.14623"
     inkscape:window-x="-8"
     inkscape:window-y="-8"
     inkscape:window-maximized="1"
     inkscape:current-layer="svg2996" />
  <g
     id="g3046"
     transform="translate(1.25,0)">
    <path
       style="fill:#fefefe"
       d="M 0,256 0,0 l 256,0 256,0 0,256 0,256 -256,0 -256,0 0,-256 z"
       id="path3054"
       inkscape:connector-curvature="0" />
    <path
       style="fill:#c8d804"
       d="M 385,511.31786 C 325.61371,505.1745 281.96919,455.19901 284.2908,396 c 1.67267,-42.65142 24.69899,-77.84717 63.15743,-96.53619 62.92964,-30.58089 137.22403,3.69544 156.26457,72.09396 4.11608,14.78602 4.12525,42.06703 0.0191,56.81265 C 488.88282,481.69519 438.55098,516.85757 385,511.31786 z M 207.5,476.93992 c -4.95,-1.62237 -15.86982,-6.35254 -24.26626,-10.51147 C 71.399422,411.03453 6.001666,282.92847 6.0001994,119.25 L 6,97 18.894045,97 C 67.674132,97 87.269224,88.184079 118.91526,52 140.73002,27.056991 151.42529,17.79926 166.51759,10.795852 194.31132,-2.1015151 231.64895,-3.4296391 260.4895,7.4532097 278.5331,14.261881 291.56826,24.886975 314.68178,51.625907 346.04953,87.913739 366.25014,96.876618 416.88818,96.9742 L 430.27637,97 l -0.67948,25.25 c -1.03324,38.39589 -3.34674,64.44067 -8.17499,92.03205 -2.50007,14.2868 -6.98723,35.3687 -8.26081,38.81152 -0.61653,1.66663 -2.24522,1.886 -16.67218,2.24563 -99.84781,2.48893 -166.99658,98.42389 -134.60556,192.30999 2.22916,6.46128 3.95483,11.82917 3.83483,11.92866 -3.54826,2.94169 -31.28205,15.30957 -41.07352,18.31673 -8.19096,2.51562 -6.22201,2.62526 -17.14466,-0.95466 z"
       id="path3052"
       inkscape:connector-curvature="0" />
    <path
       style="fill:#082a8d"
       d="m 385,511.31786 c -47.20737,-4.88348 -85.1401,-37.5289 -97.77712,-84.14832 -3.84382,-14.18028 -3.83214,-39.97627 0.0246,-54.33908 8.62406,-32.11669 28.722,-57.37778 57.27106,-71.98397 63.83751,-32.66036 139.81322,1.06234 159.17912,70.65351 4.13174,14.84735 4.14814,42.09694 0.0342,56.87042 C 488.87092,481.73789 438.59386,516.862 385,511.31786 z m 42.74592,-88.56374 C 452.63567,397.86889 473,377.06167 473,376.51585 473,375.20212 442.81857,345 441.50574,345 440.94559,345 427.21801,358.275 411,374.5 394.78199,390.725 381.2143,404 380.84958,404 c -0.36473,0 -7.18814,-6.525 -15.16314,-14.5 C 357.71144,381.525 350.81227,375 350.35495,375 349.15728,375 319,405.27934 319,406.48185 319,408.11358 379.34554,468 380.98978,468 c 0.82613,0 21.8664,-20.36065 46.75614,-45.24588 z M 206.5,476.47311 C 157.53979,459.83378 106.14523,417.89475 72.128901,366.82348 29.050513,302.14666 6.0397843,215.86645 6.0072486,118.89607 L 6,97.292134 25.25,96.701161 C 71.737371,95.274003 88.468986,87.297001 118.99993,52.004737 149.40374,16.859427 166.13545,6.2991645 199.14234,1.4226153 241.74061,-4.8709963 275.8113,7.8424911 305.20519,41 c 4.14436,4.675 11.33058,12.775 15.96939,18 25.37949,28.586631 49.03655,38 95.4991,38 L 430,97 l -0.0228,6.75 c -0.17156,50.7867 -5.47185,102.17557 -14.26031,138.26051 l -3.22436,13.23904 -11.13227,-0.17719 c -102.56295,-1.63245 -174.43349,100.4327 -138.21949,196.28894 1.63348,4.32372 2.83254,7.98427 2.66459,8.13455 -1.69547,1.51713 -26.45324,13.08105 -33.80536,15.78989 -13.67454,5.0383 -14.10932,5.05854 -25.5,1.18737 z"
       id="path3050"
       inkscape:connector-curvature="0" />
    <path
       style="fill:#000000"
       d="M 384.74936,510.87728 C 307.21717,503.47883 261.03311,419.71434 296.04869,350 c 39.56842,-78.77883 150.88225,-82.30966 195.87502,-6.21309 17.37636,29.38874 19.71757,67.79063 6.1237,100.44456 -18.12474,43.53759 -65.20973,71.2346 -113.29805,66.64581 z m 42.99656,-88.12316 C 452.63567,397.86889 473,377.06167 473,376.51585 473,375.20212 442.81857,345 441.50574,345 440.94559,345 427.21801,358.275 411,374.5 394.78199,390.725 381.2143,404 380.84958,404 c -0.36473,0 -7.18814,-6.525 -15.16314,-14.5 C 357.71144,381.525 350.81227,375 350.35495,375 349.15728,375 319,405.27934 319,406.48185 319,408.11358 379.34554,468 380.98978,468 c 0.82613,0 21.8664,-20.36065 46.75614,-45.24588 z M 208.92284,477.03486 C 176.33011,466.37544 139.05869,442.3358 110.48452,413.54326 41.926019,344.46083 6,241.42756 6,113.88907 L 6,97 21.276234,97 C 69.233606,97 87.595443,88.34838 121.02707,50 140.98285,27.109349 151.16708,18.41439 166.8804,10.851933 191.50243,-0.99807384 227.98553,-2.9140487 256,6.1716599 275.88791,12.621748 288.97014,22.650236 312.52209,49.5 346.18038,87.871226 361.42754,95.389339 408.25,96.701817 l 20.75,0.581642 -0.01,22.108271 c -0.0207,46.3067 -5.50932,92.98924 -15.29723,130.10827 l -1.31845,5 -16.93721,0.61089 c -41.32633,1.49055 -74.28227,16.08271 -102.12323,45.21789 -38.56991,40.3629 -50.55872,101.81041 -29.8212,152.84576 l 2.35766,5.80224 -8.58867,4.68169 c -9.0602,4.93872 -26.30593,12.19742 -34.83894,14.66366 -4.86975,1.40747 -5.42124,1.35488 -13.5,-1.28727 z M 220,238.91023 220,35.820462 211.25,36.513614 C 184.04378,38.668821 172.86086,44.815721 151.23862,69.5 113.35356,112.75014 89.762808,126.95709 48.163243,131.57459 l -6.336757,0.70337 0.615181,10.61102 C 48.925449,254.72507 80.627358,335.48146 140.62581,393 163.7826,415.19965 205.30047,441.53964 217.75,441.92953 L 220,442 220,238.91023 z"
       id="path3048"
       inkscape:connector-curvature="0" />
  </g>
</svg>
